<svg id="Layer_1" data-name="Layer 1" xmlns="http://www.w3.org/2000/svg" viewBox="0 0 182.08 42"><defs><style>.cls-1{fill:#fff;}</style></defs><title>logo-hubmap</title><path class="cls-1" d="M0,0H9.67V15H15.6V0h9.67V41H15.6V24.12H9.67V41H0Z"/><path class="cls-1" d="M31.08,7h9.24V29.51c0,2.84.61,4,2.26,4s2.25-1.2,2.25-4V7h9.25V41.12H45.14V37H45c-1.18,3.35-3.54,5-6.73,5-4.05,0-7.23-2-7.23-9.27Z"/><path class="cls-1" d="M60.2,0H74.29C81,0,84.08,1,84.07,10.22c0,6.78-1.65,8.27-5.61,9.19v.11c4.71.52,6.62,2.48,6.62,9.36C85.08,39,82.07,41,74.29,41H60.2ZM70.53,16.08h1.53c1.3,0,2-2.12,2-4.48s-.72-4.6-2-4.6H70.53Zm0,17.23h1.56c1,0,2-2,2-5.72,0-3.58-1-5.59-2-5.59H70.53Z"/><path class="cls-1" d="M90.08,0h12.83l3.62,24.29h.09L110.24,0h12.84V41h-8.4V10.45h-.1L109.81,41h-6.47L98.57,10.45h-.1V41H90.08Z"/><path class="cls-1" d="M136,0h10.61l7.88,41h-9l-.86-7.18h-6.71L137.05,41h-9Zm5.35,8.38h-.09l-2.31,17.4h4.71Z"/><path class="cls-1" d="M159.7,0h12.87c6.55,0,9.51,5.45,9.51,12.63,0,8.39-3.83,12.75-10.8,12.75h-3V41H159.7Zm8.58,17.69h1.62c2.16,0,3.32-1.55,3.32-5s-1.16-5-3.32-5h-1.62Z"/></svg>