<svg xmlns="http://www.w3.org/2000/svg" viewBox="0 0 300 700"><defs><style>.cls-1,.cls-16,.cls-4{fill:none;}.cls-2{opacity:0.2;}.cls-3{fill:#fff;}.cls-4{stroke:#5c6169;}.cls-16,.cls-4{stroke-miterlimit:10;}.cls-5{fill:#001c2c;}.cls-6{fill:#ff5722;}.cls-7{fill:#82b1ff;}.cls-8{fill:#aeea00;}.cls-9{fill:#43a047;}.cls-10{fill:#d4e157;}.cls-11{fill:#d50000;}.cls-12{fill:#0d47a1;}.cls-13{fill:#c51162;}.cls-14{fill:#2e7d32;}.cls-15{opacity:0.49;}.cls-16{stroke:#fff;}</style></defs><g id="Layer_47" data-name="Layer 47"><rect class="cls-1" x="-201.16" y="1.41" width="700" height="700"/></g><g id="body_white_copy" data-name="body white copy"><g id="body_1_copy_3" data-name="body 1 copy 3" class="cls-2"><path class="cls-3" d="M262,310.4c-.64-4.28-4-32.7-6.48-41.48s-20.58-44.62-22-58.91c-.28-2.81-2.23-16.39-2.3-29.34A141,141,0,0,0,229.57,158C227,144.31,210,134.79,203,134.21c-3.84-.32-10.64-6.07-13.53-7.46s-15.15-5-17.13-6.41-4-4.39-3.95-6.25,0-10.8,1.76-15.52a53,53,0,0,0,2.41-9.65s.44,1.2,2.42,0,4-9.66,4-9.66,1.32-10.21-1.54-10.32c-1.22,0-1.76,0-2,0,0-.9,0-15.2-.88-18.39S168.16,31.68,149,32.17c-19.14-.49-24.61,15-25.49,18.33s-.87,17.49-.87,18.39c-.22,0-.75,0-2,0-2.85.11-1.54,10.32-1.54,10.32s2,8.45,4,9.66,2.42,0,2.42,0a54,54,0,0,0,2.41,9.65c1.76,4.72,1.69,13.71,1.76,15.52s-2,4.83-4,6.25-14.12,5-17.12,6.41-9.7,7.14-13.54,7.46c-7,.58-24,10.1-26.6,23.74-1,5.49-1.59,14-1.64,22.72-.08,13-2,26.53-2.31,29.34-1.41,14.29-19.52,50.13-22,58.91s-5.84,37.2-6.47,41.48-8,42.7-7.36,55.32c.24,4.88,2.2,24.15,5.16,32.27,1,2.64,2.2,5,5.22,4.5s2.14-5,2.14-5L40,394.2s2.14.34,2.8-.27.44-3.18.44-3.18-2.25-5.44-3.62-9.83-.22-11.36,1-10.37,5.16,6.8,6.58,7.68a3,3,0,0,0,3.73-.11c.35-.4.38-2.78-1.65-7.67-3.06-7.36-5.7-10.85-6.3-15.6-.67-5.28,1.75-22.55,8.89-36.1,2.77-5.27,20.3-32.88,22.83-42.7s2.85-19.43,3.73-23.82,11.74-29,13.11-32.92,4.61-20.42,4.61-20.42,4.5,27.93,5,35.56.06,25.8,0,30.84-5.27,16-5.43,21.85.32,19.59.43,22.39-10.21,41-8.56,80.56c2,47.3,17.34,81.87,17.34,107.34,0,10-2.68,44.56-2,59.71s12.84,69.31,12.84,73.92-1.69,15.13-1.87,17.17c-.27,3.2-.31,5.66-.48,7.09s-.94,1.36-1.66,2.9-.87,3.3-1.7,4.45-7.57,6.8-9.11,12,6.59,3.46,6.59,3.46,9.77-.28,12.18-.39,5.93.12,10.43.39,8.23.27,10.64-3.35c2.19-3.28-.21-16.77-.69-18.32a43.63,43.63,0,0,0,.69-6.49c0-2.36-3-11.79-3.45-15.14s-.51-29.57.27-36.17,6.2-32.81,6.15-52-3.24-17.56-4.06-28.92,1.42-18.83,3.62-34.3,2.63-98.18,2.63-98.18l3.1-.69,3.11.69s.43,82.7,2.62,98.18,4.45,22.94,3.63,34.3-4,9.71-4.07,28.92,5.37,45.43,6.15,52,.71,32.82.28,36.17-3.46,12.78-3.46,15.14a43.63,43.63,0,0,0,.69,6.49c-.47,1.55-2.88,15-.69,18.32,2.41,3.62,6.14,3.62,10.64,3.35s8-.5,10.43-.39,12.18.39,12.18.39,8.13,1.7,6.59-3.46-8.29-10.82-9.11-12-1-2.91-1.7-4.45-1.54-1.76-1.7-3.18-.31-4.76-.44-6.81-1.87-12.56-1.87-17.17,12.13-58.78,12.84-73.92-2-49.72-2-59.71c0-25.47,15.36-60,17.34-107.34,1.65-39.6-8.67-77.77-8.56-80.56s.6-16.58.44-22.39-5.33-16.8-5.43-21.85-.61-23.21-.06-30.84,5-35.56,5-35.56,3.24,16.46,4.61,20.42,12.24,28.53,13.11,32.92,1.16,14,3.74,23.82c2.65,10.12,20.08,37.48,22.83,42.7,7.14,13.55,9.56,30.82,8.89,36.1-.61,4.75-3.24,8.24-6.3,15.6-2,4.89-2,7.27-1.66,7.67a3,3,0,0,0,3.73.11c1.43-.88,5.38-6.69,6.59-7.68s2.36,6,1,10.37-3.62,9.83-3.62,9.83-.33,2.46.44,3.18,2.8.27,2.8.27l-1.26,3.3s-.88,4.5,2.14,5,4.25-1.86,5.21-4.5c3-8.12,4.93-27.39,5.16-32.27C269.94,353.1,262.62,314.69,262,310.4Z"/></g><g id="regions_copy_2" data-name="regions copy 2" class="cls-2"><g id="orange_copy_2" data-name="orange copy 2"><path class="cls-3" d="M206.62,181.22c1.4-8.12-10.91-15.8-13.17-22.17s3.07-13.87-5.27-14.38-24.22,11-25.24,15.92,3.84,17.7,3.4,25S161.29,215,161.29,215s-3.62,15.47-6.92,19.86-12.94,6.51-13.89,12.59.83,7.39,1.38,11.45-3.1,13.39-.66,17.78,5.82,11.85,17.89,11.85,17.57-12.62,17.57-12.62,10.31-13.28,12.73-21.62S187,224.14,188,217.44,205.22,189.34,206.62,181.22Z"/><path class="cls-3" d="M196.76,256.21s-18.9,11.39-20.43,31.14,25.71,23,25.71,23,.06-4.94.22-11.47c.09-4.23.57-9.12-.08-13.8-.73-5.22-3.31-10.74-4.48-15.88C196.91,265.76,196.85,266.16,196.76,256.21Z"/><path class="cls-3" d="M101.12,234.79c.22,4.49,24.47,58.27,31.85,48.06s3.68-13.39,4.75-20.08.08-17.23-5-20.09-14.49-10.43-17.56-18.54-5.49-37.76-5.71-56.53-2.38-19.7-11.06-19.76-9.24,12.74-9.9,18.44,5.2,38.8,6.09,36.5A37.17,37.17,0,0,0,96,198.4S100.89,230.29,101.12,234.79Z"/><path class="cls-3" d="M89,225.54c0-.55-.51-18.43-6.22-18.87s-9.11,7.9-12.84,13.5,7.88,36.19,7.88,36.19a35,35,0,0,1,1.84-7.93C81.08,244.55,89,225.54,89,225.54Z"/><path class="cls-3" d="M76.38,267.46c-6.69-9.66-9.2-38-12.38-39.33s-4.07,2.57-4.07,2.57l-3.07,8.41s-3.58,41.81,12.54,48.95A72.16,72.16,0,0,0,74,278.17,47.86,47.86,0,0,0,76.38,267.46Z"/><path class="cls-3" d="M60.11,304.61c.77-4.61-16.86-36.54-17.58-35.69s-3.34,18.34-3.34,18.34l-2.36,17.31S51,320,53.62,315.57Z"/><path class="cls-3" d="M51.64,319c-5.16-1.43-15.45-9.57-15.45-9.57l-3.66,21.64a24.15,24.15,0,0,0,15.56-3.91l1.47-3.75Z"/><path class="cls-3" d="M95.64,292.43c3.31,5.1,20,.74,22.52-7.16s-16.85-30.51-16.85-30.51a88,88,0,0,1-.11,10.75c-.44,4.62-3.41,11.77-5,17.8A28.77,28.77,0,0,0,95.64,292.43Z"/><path class="cls-3" d="M220.71,260.46l20-27.11s12.77,29.24,14.52,34.66,1.64,7.57,1.64,7.57l-24.67,19s-7.23-13.12-8.69-18.3A121.32,121.32,0,0,1,220.71,260.46Z"/><polygon class="cls-3" points="234.41 298.41 258.04 282.56 262.73 315.51 249.07 324.95 245.94 318.28 234.41 298.41"/><path class="cls-3" d="M251.21,330.45s4.8,15.79,4,23.48c-.66,6.28-6.55,16.1-7.07,18.27-.36,1.54-2.4,6.08.22,6.55s5.24-3.46,5.24-3.46,3.5-5,4.21-4.82c.88.16,1.58,2.5,1.22,7.35-.27,3.7-3.76,11.68-4,12.61s-.65,2.52.5,3.63c.69.66,2.19.07,2.61.14s-.66,1.84-1.17,3.05-.27,4.76,2.17,5.26,3.78-1.27,5-4.14c1.79-4.38,4.82-20.47,5.32-35,.34-9.62-5.15-39.78-5.35-41.44Z"/><path class="cls-3" d="M193.57,508.68s-23,9.66-23.28,13.76,6.43,19,3.21,38.7-12.65,44-12.65,44,.71,30.79-.37,36.17c-.82,4.09-2.78,6.51-2.78,9.14s2.05,12.07,13.83,7.54,11.49-6.81,12.22-9.88-1-7.47-1.44-17.2c-.08-1.73,4.72-26.06,7.85-41.6,2.64-13.16,4-22.2,4.91-29.56C196.3,550.14,193.57,508.68,193.57,508.68Z"/><path class="cls-3" d="M104.51,509.28s11.63,2.85,11.85,11S112.7,553.4,117.83,573,128,601.07,137.1,608.39c-.07,2.91-.38,21.92.15,25.83.76,5.62,3.84,13,3.41,16.94s-1.1,2.12-5.64,1.39-20.27-28-20.27-28-1.81-9.4-4.19-21.44c-3.38-17.14-7.7-39.75-7.77-49.28C102.7,542.08,104.51,509.28,104.51,509.28Z"/><path class="cls-3" d="M115.23,637.55c-.18.37,10.31,8.14,9.25,16.61S108.74,664,108.74,664a4.59,4.59,0,0,0,1.69-2.06c.44-1.05.83-2.48,1.25-3.67s1.31-1.37,1.62-2.51c.37-1.37.31-5.4.61-8C114.48,642.94,115.23,637.55,115.23,637.55Z"/></g><g id="blue_copy_3" data-name="blue copy 3"><path class="cls-3" d="M162.21,35a68.75,68.75,0,0,0-13.57,29.66c2.58-9.93,13.17-24.31,18-26.61,0,0-.37-.35-1.58-1.31A16.65,16.65,0,0,0,162.21,35Z"/><path class="cls-3" d="M155.4,32.65s-6.82,11.49-15.05,19.25a55.25,55.25,0,0,1-17.51,11V58.35s13.56-7.25,15.59-12.27S138,34,138,34a35.58,35.58,0,0,1,8.64-1.79A61.17,61.17,0,0,1,155.4,32.65Z"/><path class="cls-3" d="M209.29,361.53c-.43-7.8-18.07-37.81-24.73-40.81s-13.54-2.49-21.88-6.8S151,300.44,137,297s-33,4.77-38.55,7.92c-.59-1,12-10.83,23.85-12.52,14.63-2.07,37.76-1.17,48.29,5.35s36.66,42.73,37.68,50.56A112.25,112.25,0,0,1,209.29,361.53Z"/><path class="cls-3" d="M209.57,403.68c-10-6.44-10.25-32.73-12.13-38.62-9.3-29.05-27.88-39.95-39.81-40.31,29-4,53,51.47,53,51.47S210.88,393.73,209.57,403.68Z"/><path class="cls-3" d="M186.76,396.53S171,356.06,160,350.57s-15.44-2.78-22.24-4.24S95,323.12,93.13,325.1l-.76,4.17c3.88,3.22,36,14.57,40.16,19.84s14.83,17.63,21.73,20.78,7.91,2.71,14.27,6.51,16,20.05,16,20.05l2.2.08"/><path class="cls-3" d="M183.09,356.94c-.8-13.76-26.82-23.36-34.6-24.53-6.29-1-9.66,1.48-21.59-2.1s-32.09-13.76-32.09-13.76l.92-4.57.36-2.45s22.54-7,33.59-2.35,17.83,20.2,24.17,22.61S187.66,344.56,183.09,356.94Z"/><path class="cls-3" d="M153,385.26c-10-24.73-62-48-62-48l-1.5,10.68-1.17,11.34s16.41-2.85,21.63-2.34S130.52,359.28,153,385.26Z"/><path class="cls-3" d="M145.77,397.66s-21.65-25.87-30.51-28.79-27.53-.9-27.53-.9l-.36,5.76a74.51,74.51,0,0,0,24,18c15.36,7.32,34.38,8.76,34.38,8.76Z"/><path class="cls-3" d="M111.94,405.45c-13,6.88-22.91,3.79-22.91,3.79L88,397.38l-.58-13.09S104,401.87,111.94,405.45Z"/><path class="cls-3" d="M141.52,666.09s-12.72.35-19.8,2c-14.54,3.4-18.53,10.33-20.27,7.7,3.21-5.95,8.71-10.17,20.64-12.88s19-.79,19-.79Z"/><path class="cls-3" d="M187.52,667.29c-2.27,0-3,1.52-4.94,1.65s-9.55-6.66-15.25-7.45a32.38,32.38,0,0,0-10.32.21l-.56,5.44,11.33,11a102.09,102.09,0,0,1,11.07-.48c4.85.08,10.66.55,12,.27,3-.6,2.93,0,3.17-2.49C194.33,672.59,189.8,667.29,187.52,667.29Z"/><path class="cls-3" d="M145.77,402.62s-7.9,9.13-12.58,11.17-11.66.35-11.66,2.27,6.83,3.44,13.2,1.17,11-9.14,11-9.14Z"/><polygon class="cls-3" points="43.31 346.26 30.32 345.83 30.74 342.78 43.84 342.93 43.31 346.26"/><path class="cls-3" d="M43.08,355.87c-2.2,2.14-13.51-4-13.51-4l.31-2.63,13,2s0,2.09,0,2.55S43.08,355.87,43.08,355.87Z"/><path class="cls-3" d="M48.71,369.26C47.83,366.81,29,358,29,358l-.25,4s19.8,10.34,22.18,13.74c0,0-.36-1.63-1-3.51C49.57,371.22,49,370.1,48.71,369.26Z"/><path class="cls-3" d="M39,377.87c.08-1.89-9.89-6.88-9.89-6.88s.29,4.55,2,15.37c1,6.21,2,10.44,3.55,13.56,1.19,2.45,3.26,3.21,5.28,2.26,1.76-.83,1.56-4.28.52-6.61-.68-1.51-.55-1.44-.55-1.44l.87.16s1.73.15,2.05-.47c.66-1.28.45-2.55-.13-4.12C41.83,387.32,38.93,380,39,377.87Z"/><path class="cls-3" d="M234.45,298.47c.29-.22,23.59-15.91,23.59-15.91s-.84-7.2-1.21-7-24.69,19.13-24.69,19.13Z"/><polygon class="cls-3" points="249.07 324.95 262.73 315.51 263.91 321.95 251.09 330.45 249.07 324.95"/></g><g id="light_green_copy_3" data-name="light green copy 3"><path class="cls-3" d="M136.7,154.84c14.05,0,24.59,11.12,24.59,23.71s-3.07,37.9-6.29,45.37-8.2,11.41-16.69,12.29-12.44-4.54-18.58-15.81-6.15-39.65-5-47.85S122.66,154.84,136.7,154.84Z"/><path class="cls-3" d="M230.69,185.57s-20.08-2.47-22.43-19,12.58-22.2,12.58-22.2,8.42,6.38,9.23,19.71C230.72,174.89,230.69,185.57,230.69,185.57Z"/><path class="cls-3" d="M231.85,194.2c0-1.53-9.88-6.58-16.85-7.6s-10.1,9-10.1,9a43.67,43.67,0,0,0,2.33,25.49c5.54,13.41,11.46,28,11.46,28s18.13-13.62,18.13-26.2C233,214.32,231.86,195.64,231.85,194.2Z"/><path class="cls-3" d="M196.66,249c0,.12-.24.18-.28.07-1.07-2.77-6-16.26-5.09-26.71,1-11.71,10.78-25.32,10.78-25.32s-3.7,25.6-4.38,30.38A142.27,142.27,0,0,0,196.66,249Z"/><path class="cls-3" d="M62.07,220.4c1.32-1.17,20.63-19.61,22.1-36s-12-35.05-12-35.05S67.26,152.92,67,173c-.13,10.26-.54,19.47-1.34,27C64.26,213.29,62.07,220.4,62.07,220.4Z"/><path class="cls-3" d="M67.35,291.91C55.72,275.66,51.5,247.18,51.5,247.18s-3.35,7.67-5.07,11.56-3.7,9.25-3.7,9.25S55.59,291.23,64.8,296.5Z"/><path class="cls-3" d="M138.9,516.89s-24.29-1.32-18.44,40.1,16.83,44.78,16.83,44.78,5.56-29.56,5.56-48.44A188.15,188.15,0,0,0,138.9,516.89Z"/><path class="cls-3" d="M160.7,595.92s8-13.32,9.66-43.61-11.49-33.22-11.49-33.22-5.69,18.65-3.65,34.39Z"/></g><g id="green_copy_3" data-name="green copy 3"><path class="cls-3" d="M179.22,123.1c7.21,2.39,7.61,17.2-8.12,25.94-6.08,3.38-15.19-5.67-17.09-13.2s-2.6-14.82-3.33-21-8.12-16.9-6.81-28.75,2.94-21.87,13.47-21.87c5.57,0,2.29,9.91,3.36,17.48,1,6.76,6.7,14.88,7.69,21,.8,5-.7,11.41.34,13.09C170.61,120.22,173.14,121.09,179.22,123.1Z"/><path class="cls-3" d="M177.36,68.94c-3.5,0-12.83,2-12.45,8.07s5.18,16.56,6.44,17.6L172.53,89s.75,1.33,2.88-.49c1.09-.93,3.22-7.07,3.53-9.63S179.71,68.94,177.36,68.94Z"/><path class="cls-3" d="M175.31,64s-12.26-.65-12.75-8.88S169,40.4,169,40.4s4.69,5.4,5.64,10.93C175.38,55.43,175.31,64,175.31,64Z"/><path class="cls-3" d="M120.51,82.22c-.27-8.78,12.41-18.49,16.25-19.7,4.43-1.39,7.74-2.63,8.4-.38a9.57,9.57,0,0,1-1.32,8.06c-1.92,3-4.61,16.36-4.12,21a63.87,63.87,0,0,0,5,19.43c3,6.53,2.82,13.74,3,20.69.44,15.69-7.18,17.12-20.85,19.64s-24.64-16.55-23.87-20.5,21.86-8.31,23.39-10.78c.52-.83,2.59-1.83,3-4.55.55-3.48,0-10.12-.82-14.38-.55-2.91-2.58-6.53-3-12-.13-1.59.16.86-1,.7C121.92,89.1,120.6,84.88,120.51,82.22Z"/><path class="cls-3" d="M76.36,144.42s4.37,4.64,9.27,2.15,7.17-11.95,7.17-11.95-7.21,2.48-10.21,4.75S76.36,144.42,76.36,144.42Z"/><path class="cls-3" d="M207.56,419.56c-1.6,3.23-23,2.67-28.27-.57-3.47-2.12-9.88-6.22-6.88-14.56s9.4-8,13.1-8c7.1,0,23.93,8.49,23.93,8.49S207.74,419.2,207.56,419.56Z"/><path class="cls-3" d="M195.76,475.74c-.06,1.33-24.74-32.6-21.45-44.53s30.27-4.08,31.22,0C205.74,432.12,195.83,474.42,195.76,475.74Z"/><path class="cls-3" d="M165.61,419.57c3.36.44,3.22,19.1,4.17,24.66s22.39,29.34,23.27,39.73-1.54,21.22-11.86,25.1-17.78-9.14-20.41-18.29-6.92-25.93-7.43-31.15-.62-28.76-.72-30.27C152.39,425.55,162.24,419.14,165.61,419.57Z"/><path class="cls-3" d="M144.94,417.75c-2.13-4-46.21,38.19-38.16,68.7s32,26.39,32.56,24.88c1.36-19.39,3.51-17.3,4.38-32C145.11,455.52,146.21,420.16,144.94,417.75Z"/><path class="cls-3" d="M100.34,466.64c5.12-19.09,25.73-37,25.1-43.55S95.1,443.77,95.1,443.77,97.63,455.06,100.34,466.64Z"/><path class="cls-3" d="M93.79,437.75c.22,0,9.88-6.44,9.88-13.17s-13.45-6.79-13.45-6.79Z"/><path class="cls-3" d="M215.29,139.32c2.62,1.58.58,10.84-12.15,10.84s-15.56-24.22-14.44-23.74c3.33,1.43,4.56,3,10.38,6.39C203.9,135.6,203.8,132.41,215.29,139.32Z"/></g></g><g id="dots_copy_2" data-name="dots copy 2" class="cls-2"><g id="light_green_copy_3-2" data-name="light green copy 3"><circle class="cls-3" cx="97.72" cy="323.42" r="2.49"/><circle class="cls-3" cx="109.2" cy="344.49" r="2.48"/><circle class="cls-3" cx="99.57" cy="354.05" r="2.96"/><circle class="cls-3" cx="92.32" cy="366.04" r="1.93"/><circle class="cls-3" cx="101.66" cy="372.53" r="2.41"/><circle class="cls-3" cx="100.13" cy="379.17" r="2.4"/><circle class="cls-3" cx="99.05" cy="386.53" r="3.32"/><circle class="cls-3" cx="113.5" cy="371.63" r="1.83"/><circle class="cls-3" cx="122.66" cy="390.81" r="2.48"/></g><g id="red_copy_2" data-name="red copy 2"><circle class="cls-3" cx="165.92" cy="48.36" r="1.37"/><circle class="cls-3" cx="172.61" cy="52.97" r="1.37"/><circle class="cls-3" cx="164.55" cy="64.28" r="1.37"/><circle class="cls-3" cx="168.66" cy="68.59" r="1.37"/><circle class="cls-3" cx="169.87" cy="76.8" r="1.37"/><circle class="cls-3" cx="161.73" cy="72.87" r="1.37"/><circle class="cls-3" cx="164.55" cy="82.09" r="1.37"/><circle class="cls-3" cx="136.7" cy="68.59" r="1.37"/><circle class="cls-3" cx="138.72" cy="70.31" r="1.37"/><circle class="cls-3" cx="136.7" cy="72.31" r="1.37"/><circle class="cls-3" cx="137.34" cy="79.59" r="1.37"/><circle class="cls-3" cx="133.36" cy="90.12" r="1.37"/><circle class="cls-3" cx="129.97" cy="95.61" r="1.37"/><circle class="cls-3" cx="128.6" cy="90.85" r="1.37"/><circle class="cls-3" cx="136.7" cy="103.51" r="1.37"/><circle class="cls-3" cx="143.42" cy="101.83" r="1.37"/><circle class="cls-3" cx="168.5" cy="95.61" r="1.37"/><circle class="cls-3" cx="161.73" cy="109.62" r="1.37"/><circle class="cls-3" cx="170.8" cy="121.68" r="1.37"/><circle class="cls-3" cx="172.79" cy="124.83" r="1.37"/><circle class="cls-3" cx="162.27" cy="134.28" r="1.37"/><circle class="cls-3" cx="173.55" cy="137.65" r="1.37"/><circle class="cls-3" cx="187.98" cy="137.65" r="1.37"/><circle class="cls-3" cx="182" cy="141.67" r="1.37"/><circle class="cls-3" cx="177.08" cy="146.06" r="1.37"/><circle class="cls-3" cx="166.81" cy="151.14" r="1.37"/><circle class="cls-3" cx="160.36" cy="160.63" r="1.37"/><circle class="cls-3" cx="160.36" cy="153.62" r="1.37"/><circle class="cls-3" cx="161.36" cy="148.81" r="1.37"/><circle class="cls-3" cx="155.27" cy="144.69" r="1.37"/><circle class="cls-3" cx="150.77" cy="137.65" r="1.37"/><circle class="cls-3" cx="151.43" cy="149.35" r="1.37"/><circle class="cls-3" cx="144.64" cy="149.35" r="1.37"/><circle class="cls-3" cx="138.08" cy="150.18" r="1.37"/><circle class="cls-3" cx="140.44" cy="129.45" r="1.37"/><circle class="cls-3" cx="136.7" cy="128.87" r="1.37"/><circle class="cls-3" cx="121.63" cy="128.87" r="1.37"/><circle class="cls-3" cx="128.2" cy="143.04" r="1.37"/><circle class="cls-3" cx="123" cy="152.51" r="1.37"/><circle class="cls-3" cx="116.71" cy="154.72" r="1.37"/><circle class="cls-3" cx="113.82" cy="162" r="1.37"/><circle class="cls-3" cx="131.98" cy="172.66" r="1.37"/><circle class="cls-3" cx="138.08" cy="179.96" r="1.37"/><circle class="cls-3" cx="157.54" cy="174.03" r="1.37"/><circle class="cls-3" cx="103.01" cy="143.04" r="1.37"/><circle class="cls-3" cx="94.67" cy="141.14" r="1.37"/><circle class="cls-3" cx="89.81" cy="149.35" r="1.37"/><circle class="cls-3" cx="83.36" cy="151.55" r="1.37"/><circle class="cls-3" cx="155.27" cy="156.36" r="1.37"/><circle class="cls-3" cx="161.36" cy="151.14" r="1.37"/><circle class="cls-3" cx="175.7" cy="134.28" r="1.37"/><circle class="cls-3" cx="185.85" cy="129.45" r="1.37"/><circle class="cls-3" cx="196.85" cy="135.65" r="1.37"/><circle class="cls-3" cx="194.88" cy="149.35" r="1.37"/><circle class="cls-3" cx="205.79" cy="152.25" r="1.37"/><circle class="cls-3" cx="201.2" cy="159.01" r="1.37"/><circle class="cls-3" cx="206.8" cy="162.2" r="1.37"/><circle class="cls-3" cx="203.95" cy="166.68" r="1.37"/><circle class="cls-3" cx="209.63" cy="175.4" r="1.37"/><circle class="cls-3" cx="212.11" cy="182.95" r="1.37"/><circle class="cls-3" cx="208.17" cy="174.03" r="1.37"/><circle class="cls-3" cx="148.48" cy="115.48" r="1.37"/><circle class="cls-3" cx="159.99" cy="124.48" r="1.37"/><circle class="cls-3" cx="140.73" cy="112.37" r="1.37"/><circle class="cls-3" cx="132.74" cy="111" r="1.37"/><circle class="cls-3" cx="131.37" cy="68.28" r="1.37"/><circle class="cls-3" cx="124.05" cy="184.94" r="2.49"/><circle class="cls-3" cx="126.37" cy="200.04" r="2.49"/><circle class="cls-3" cx="132.85" cy="203.41" r="2.49"/><circle class="cls-3" cx="122.41" cy="208.25" r="2.49"/><circle class="cls-3" cx="130.03" cy="215.82" r="2.49"/><circle class="cls-3" cx="175.21" cy="403.13" r="1.62"/><circle class="cls-3" cx="181.84" cy="407.33" r="1.24"/><circle class="cls-3" cx="173.58" cy="420.34" r="1.24"/><circle class="cls-3" cx="178.14" cy="424.3" r="1.24"/><circle class="cls-3" cx="196.26" cy="433.4" r="1.79"/><circle class="cls-3" cx="173.06" cy="438.35" r="1.24"/><circle class="cls-3" cx="169.39" cy="484.48" r="1.24"/><circle class="cls-3" cx="186.97" cy="506.54" r="1.24"/><circle class="cls-3" cx="191.3" cy="502.04" r="1.24"/><circle class="cls-3" cx="170.34" cy="522.68" r="1.24"/><circle class="cls-3" cx="163.64" cy="517.51" r="1.24"/><circle class="cls-3" cx="175.94" cy="511.81" r="1.24"/><circle class="cls-3" cx="169.39" cy="511.37" r="1.24"/><circle class="cls-3" cx="168.46" cy="508.51" r="1.24"/><circle class="cls-3" cx="163.64" cy="504.74" r="1.24"/><circle class="cls-3" cx="159.97" cy="498.8" r="1.24"/><circle class="cls-3" cx="171.2" cy="493.59" r="1.24"/><circle class="cls-3" cx="171.58" cy="466.45" r="1.24"/><circle class="cls-3" cx="141.45" cy="461.84" r="1.24"/><circle class="cls-3" cx="139.64" cy="469.33" r="1.24"/><circle class="cls-3" cx="125.7" cy="456.02" r="1.73"/><circle class="cls-3" cx="117.39" cy="455.51" r="1.73"/><circle class="cls-3" cx="122.22" cy="468.09" r="1.73"/><circle class="cls-3" cx="135.77" cy="453.24" r="1.73"/><circle class="cls-3" cx="141.3" cy="447.14" r="1.73"/><circle class="cls-3" cx="134.5" cy="446.57" r="1.73"/><circle class="cls-3" cx="114.42" cy="445.01" r="1.73"/><circle class="cls-3" cx="107.67" cy="459.44" r="1.73"/><circle class="cls-3" cx="105.42" cy="470.09" r="1.73"/><circle class="cls-3" cx="105.42" cy="483.7" r="1.73"/><circle class="cls-3" cx="107.67" cy="503.4" r="1.73"/><circle class="cls-3" cx="122.76" cy="515.36" r="1.73"/><circle class="cls-3" cx="129.29" cy="513.39" r="1.73"/><circle class="cls-3" cx="134.5" cy="502.63" r="1.73"/><circle class="cls-3" cx="127.28" cy="488.93" r="1.73"/><circle class="cls-3" cx="115.5" cy="480.59" r="1.73"/><circle class="cls-3" cx="137.51" cy="533.83" r="1.73"/><circle class="cls-3" cx="119.51" cy="523.07" r="1.73"/><circle class="cls-3" cx="129.94" cy="547.16" r="1.73"/><circle class="cls-3" cx="139.59" cy="568.29" r="1.73"/><circle class="cls-3" cx="136.8" cy="580.64" r="1.73"/><circle class="cls-3" cx="128.11" cy="572.01" r="1.73"/><circle class="cls-3" cx="133.47" cy="565.22" r="2.42"/><circle class="cls-3" cx="166.37" cy="535.66" r="2.42"/><circle class="cls-3" cx="183.54" cy="497.56" r="1.24"/><circle class="cls-3" cx="184.61" cy="494.03" r="1.24"/><circle class="cls-3" cx="182.31" cy="482.52" r="1.24"/><circle class="cls-3" cx="181.07" cy="480.11" r="1.24"/><circle class="cls-3" cx="187.71" cy="468.09" r="1.24"/><circle class="cls-3" cx="176.9" cy="452.98" r="1.24"/><circle class="cls-3" cx="191.44" cy="422.9" r="1.24"/><circle class="cls-3" cx="191.44" cy="454.9" r="1.24"/><circle class="cls-3" cx="197.91" cy="443.04" r="1.24"/><circle class="cls-3" cx="203.27" cy="424" r="1.24"/><circle class="cls-3" cx="200.06" cy="402.32" r="1.24"/><circle class="cls-3" cx="190.76" cy="413.16" r="1.24"/><circle class="cls-3" cx="170.63" cy="429.35" r="1.24"/><circle class="cls-3" cx="199.54" cy="415.9" r="1.24"/><circle class="cls-3" cx="100.13" cy="425.31" r="2.4"/><circle class="cls-3" cx="102.4" cy="434.66" r="1.26"/><circle class="cls-3" cx="97.34" cy="433.11" r="1.61"/><circle class="cls-3" cx="121.09" cy="436.6" r="1.58"/><circle class="cls-3" cx="140.24" cy="424.54" r="2.37"/></g><g id="blue_copy_3-2" data-name="blue copy 3"><circle class="cls-3" cx="189.08" cy="166.68" r="2.47"/><circle class="cls-3" cx="184.13" cy="168.05" r="2.47"/><circle class="cls-3" cx="180.38" cy="161.03" r="2.47"/><circle class="cls-3" cx="184.48" cy="152.25" r="2.47"/><circle class="cls-3" cx="172.79" cy="164.21" r="2.47"/><circle class="cls-3" cx="174.23" cy="175.4" r="2.47"/><circle class="cls-3" cx="176.7" cy="190.22" r="2.47"/><circle class="cls-3" cx="186.95" cy="196.99" r="2.47"/><circle class="cls-3" cx="198.73" cy="181.66" r="2.47"/><circle class="cls-3" cx="211.31" cy="203.06" r="2.47"/><circle class="cls-3" cx="222.29" cy="199.46" r="2.47"/><circle class="cls-3" cx="219" cy="177.68" r="2.47"/><circle class="cls-3" cx="223.31" cy="169.92" r="2.47"/><circle class="cls-3" cx="224.76" cy="154.72" r="2.47"/><circle class="cls-3" cx="215.37" cy="160.83" r="2.47"/><circle class="cls-3" cx="71.43" cy="163.11" r="2.47"/><circle class="cls-3" cx="75.14" cy="178.2" r="2.47"/><circle class="cls-3" cx="78.26" cy="190.85" r="2.47"/><circle class="cls-3" cx="52.59" cy="269.76" r="2.47"/><circle class="cls-3" cx="56.92" cy="280.43" r="2.47"/><circle class="cls-3" cx="220.31" cy="214.65" r="2.47"/><circle class="cls-3" cx="209.63" cy="213.7" r="2.47"/><circle class="cls-3" cx="212.63" cy="226.57" r="2.47"/><circle class="cls-3" cx="227.63" cy="225.73" r="2.47"/><circle class="cls-3" cx="222.29" cy="239.12" r="2.47"/><circle class="cls-3" cx="151.43" cy="198.13" r="2.47"/><circle class="cls-3" cx="147.11" cy="223.76" r="2.47"/><circle class="cls-3" cx="131.2" cy="229.05" r="2.47"/><circle class="cls-3" cx="181.93" cy="526.19" r="2.27"/><circle class="cls-3" cx="183.54" cy="538.77" r="2.27"/><circle class="cls-3" cx="189.24" cy="521.94" r="2.27"/><circle class="cls-3" cx="191.83" cy="530.21" r="2.27"/><circle class="cls-3" cx="185.81" cy="553.26" r="2.27"/><circle class="cls-3" cx="159.48" cy="562.66" r="2.27"/><circle class="cls-3" cx="113.19" cy="434.46" r="2.15"/></g><g id="magenta_copy_2" data-name="magenta copy 2"><circle class="cls-3" cx="143.82" cy="302.77" r="1.83"/><circle class="cls-3" cx="152.75" cy="298.49" r="1.83"/><circle class="cls-3" cx="158.68" cy="296.66" r="1.83"/><circle class="cls-3" cx="156.42" cy="303.92" r="1.83"/><circle class="cls-3" cx="143.82" cy="311.22" r="1.83"/><circle class="cls-3" cx="156.85" cy="318.13" r="1.83"/><circle class="cls-3" cx="170.95" cy="320.93" r="1.83"/><circle class="cls-3" cx="157.95" cy="329.76" r="1.83"/><circle class="cls-3" cx="173.2" cy="335.65" r="1.83"/><circle class="cls-3" cx="146.75" cy="328.56" r="1.83"/><circle class="cls-3" cx="140.77" cy="324.34" r="1.83"/><circle class="cls-3" cx="126.97" cy="334.78" r="1.83"/><circle class="cls-3" cx="138.46" cy="342.01" r="1.83"/><circle class="cls-3" cx="151.7" cy="341.51" r="1.83"/><circle class="cls-3" cx="159.78" cy="340.74" r="1.83"/><circle class="cls-3" cx="170.95" cy="350.65" r="1.83"/><circle class="cls-3" cx="170.95" cy="369.31" r="1.83"/><circle class="cls-3" cx="175.03" cy="375.3" r="1.83"/><circle class="cls-3" cx="172.46" cy="387.56" r="1.83"/><circle class="cls-3" cx="167.72" cy="404.75" r="1.83"/><circle class="cls-3" cx="166.99" cy="412.14" r="1.83"/><circle class="cls-3" cx="161.61" cy="418.51" r="1.83"/><circle class="cls-3" cx="160.51" cy="437.75" r="1.83"/><circle class="cls-3" cx="165.89" cy="382.45" r="1.83"/><circle class="cls-3" cx="156.85" cy="379.31" r="1.83"/><circle class="cls-3" cx="161.97" cy="395.83" r="1.83"/><circle class="cls-3" cx="141.99" cy="365.04" r="1.83"/><circle class="cls-3" cx="133.5" cy="375.83" r="1.83"/><circle class="cls-3" cx="126.55" cy="371.63" r="1.83"/><circle class="cls-3" cx="136.04" cy="377.47" r="1.83"/><circle class="cls-3" cx="134.8" cy="380.73" r="1.83"/><circle class="cls-3" cx="129.83" cy="387.1" r="1.83"/><circle class="cls-3" cx="126.97" cy="397.12" r="1.83"/><circle class="cls-3" cx="126.09" cy="400.79" r="1.83"/><circle class="cls-3" cx="138.94" cy="402.92" r="1.83"/><circle class="cls-3" cx="128.38" cy="408.77" r="1.83"/><circle class="cls-3" cx="143.09" cy="389.85" r="1.83"/><circle class="cls-3" cx="111.62" cy="395.83" r="1.83"/><circle class="cls-3" cx="112.87" cy="401.09" r="1.83"/><circle class="cls-3" cx="120.18" cy="406.94" r="1.83"/><circle class="cls-3" cx="115.93" cy="413.16" r="1.83"/><circle class="cls-3" cx="114.09" cy="422.17" r="1.83"/><circle class="cls-3" cx="130.64" cy="422.9" r="1.83"/><circle class="cls-3" cx="105.1" cy="444.12" r="1.83"/><circle class="cls-3" cx="107.96" cy="427.51" r="1.83"/><circle class="cls-3" cx="110.38" cy="408.77" r="1.83"/><circle class="cls-3" cx="95.24" cy="397.66" r="1.83"/><circle class="cls-3" cx="107.53" cy="411.33" r="1.83"/><circle class="cls-3" cx="136.04" cy="353.77" r="1.83"/><circle class="cls-3" cx="124.26" cy="346.97" r="1.83"/><circle class="cls-3" cx="126.97" cy="355.09" r="1.83"/><circle class="cls-3" cx="117.03" cy="361.24" r="1.83"/><circle class="cls-3" cx="108.55" cy="363.21" r="1.83"/><circle class="cls-3" cx="33.59" cy="367.97" r="1.83"/><circle class="cls-3" cx="33.14" cy="380.32" r="1.83"/><circle class="cls-3" cx="38.19" cy="399.49" r="1.83"/><circle class="cls-3" cx="114.09" cy="327.74" r="1.83"/><circle class="cls-3" cx="115.2" cy="310.36" r="1.83"/><circle class="cls-3" cx="132.37" cy="303.12" r="1.83"/><circle class="cls-3" cx="141.99" cy="286.14" r="1.83"/><circle class="cls-3" cx="152.35" cy="289.26" r="1.83"/><circle class="cls-3" cx="139.39" cy="277.42" r="1.83"/><circle class="cls-3" cx="126.37" cy="289.93" r="1.83"/><circle class="cls-3" cx="108.19" cy="294.82" r="1.83"/><circle class="cls-3" cx="100.76" cy="277.95" r="1.83"/><circle class="cls-3" cx="107.43" cy="311.22" r="1.83"/><circle class="cls-3" cx="106.72" cy="317.26" r="1.83"/><circle class="cls-3" cx="137.73" cy="435.03" r="3.52"/><circle class="cls-3" cx="187.16" cy="436.59" r="4.28"/><ellipse class="cls-3" cx="158.33" cy="362.07" rx="5.95" ry="9.51" transform="translate(-217.52 240.02) rotate(-48.39)"/><ellipse class="cls-3" cx="114.9" cy="380.32" rx="5.6" ry="8.78" transform="translate(-276 309.28) rotate(-62.89)"/><ellipse class="cls-3" cx="125.77" cy="318.78" rx="6.15" ry="9.79" transform="translate(-207.09 237.31) rotate(-54.72)"/><ellipse class="cls-3" cx="168.52" cy="305.49" rx="6.15" ry="9.79" transform="translate(-178.19 266.6) rotate(-54.72)"/><ellipse class="cls-3" cx="50.12" cy="300.67" rx="3.69" ry="3.44"/><circle class="cls-3" cx="194.98" cy="287.63" r="5.6"/><circle class="cls-3" cx="138.34" cy="216.45" r="5.49"/><circle class="cls-3" cx="161.69" cy="258.42" r="4.5"/><circle class="cls-3" cx="127.4" cy="260.64" r="3.14"/><circle class="cls-3" cx="153.79" cy="62.9" r="2.01"/><circle class="cls-3" cx="158.18" cy="56.83" r="2.01"/><circle class="cls-3" cx="159.72" cy="50.32" r="2.01"/><circle class="cls-3" cx="153.06" cy="42.27" r="2.01"/><circle class="cls-3" cx="147.2" cy="38.54" r="2.01"/><circle class="cls-3" cx="138.72" cy="42.27" r="2.01"/><circle class="cls-3" cx="144.79" cy="55.73" r="2.01"/><circle class="cls-3" cx="137.98" cy="57.75" r="2.01"/><circle class="cls-3" cx="131.98" cy="48.31" r="2.01"/><circle class="cls-3" cx="125.4" cy="66.93" r="2.01"/><circle class="cls-3" cx="146.47" cy="69.23" r="2.01"/><circle class="cls-3" cx="154.16" cy="81.6" r="2.01"/><circle class="cls-3" cx="174.28" cy="78.6" r="3.04"/><circle class="cls-3" cx="130.75" cy="78.17" r="3.92"/><circle class="cls-3" cx="133.52" cy="627.93" r="3.11"/><circle class="cls-3" cx="169.48" cy="626.13" r="5.26"/><circle class="cls-3" cx="207.59" cy="391.68" r="2.3"/><circle class="cls-3" cx="93.99" cy="348.69" r="2.4"/></g><g id="green_copy_3-2" data-name="green copy 3"><circle class="cls-3" cx="105.29" cy="177.68" r="2.28"/><circle class="cls-3" cx="111.54" cy="183.39" r="2.28"/><circle class="cls-3" cx="113.3" cy="197.55" r="2.28"/><circle class="cls-3" cx="114.36" cy="213.7" r="2.28"/><circle class="cls-3" cx="101.22" cy="216.87" r="2.28"/><circle class="cls-3" cx="107.56" cy="232.24" r="2.28"/><circle class="cls-3" cx="115.25" cy="239.59" r="2.28"/><circle class="cls-3" cx="106.17" cy="252.8" r="2.28"/><circle class="cls-3" cx="109.26" cy="260.96" r="2.28"/><circle class="cls-3" cx="119.22" cy="252.8" r="2.28"/><circle class="cls-3" cx="119.91" cy="263.24" r="2.28"/><circle class="cls-3" cx="133.3" cy="265.51" r="2.28"/><circle class="cls-3" cx="140.01" cy="258.93" r="2.28"/><circle class="cls-3" cx="151.43" cy="255.22" r="2.28"/><circle class="cls-3" cx="160.87" cy="266.97" r="2.28"/><circle class="cls-3" cx="150.51" cy="275.9" r="2.28"/><circle class="cls-3" cx="163.94" cy="278.91" r="2.28"/><circle class="cls-3" cx="150.45" cy="242.74" r="2.28"/><circle class="cls-3" cx="132.85" cy="238.43" r="2.28"/><circle class="cls-3" cx="137.74" cy="240.71" r="2.28"/><circle class="cls-3" cx="149.89" cy="234.25" r="2.28"/><circle class="cls-3" cx="154.83" cy="230.11" r="2.28"/><circle class="cls-3" cx="178.1" cy="234.1" r="2.28"/><circle class="cls-3" cx="176.5" cy="244.46" r="2.28"/><circle class="cls-3" cx="179.33" cy="252.8" r="2.28"/><circle class="cls-3" cx="191.55" cy="274.51" r="2.28"/><circle class="cls-3" cx="183.45" cy="288.61" r="2.28"/><circle class="cls-3" cx="193.34" cy="301.62" r="2.28"/><circle class="cls-3" cx="170.95" cy="292.73" r="2.28"/><circle class="cls-3" cx="178.56" cy="314.16" r="2.28"/><circle class="cls-3" cx="183.45" cy="327.09" r="2.28"/><circle class="cls-3" cx="198.89" cy="324.61" r="2.28"/><circle class="cls-3" cx="200.58" cy="328.56" r="2.28"/><circle class="cls-3" cx="200.87" cy="332.94" r="2.28"/><circle class="cls-3" cx="203.65" cy="335.65" r="2.28"/><circle class="cls-3" cx="204.03" cy="341.51" r="2.28"/><circle class="cls-3" cx="197.65" cy="346.97" r="2.28"/><circle class="cls-3" cx="200.58" cy="352.82" r="2.28"/><circle class="cls-3" cx="183.02" cy="342.58" r="2.28"/><circle class="cls-3" cx="178.56" cy="364.53" r="2.28"/><circle class="cls-3" cx="193.34" cy="363.55" r="2.28"/><circle class="cls-3" cx="191.13" cy="374.24" r="2.28"/><circle class="cls-3" cx="202.09" cy="375.83" r="2.28"/><circle class="cls-3" cx="207.07" cy="380.73" r="2.28"/><circle class="cls-3" cx="204.03" cy="385.93" r="2.28"/><circle class="cls-3" cx="195.62" cy="393.61" r="2.28"/><circle class="cls-3" cx="173.23" cy="543.53" r="2.28"/><circle class="cls-3" cx="170.95" cy="553.26" r="2.28"/><circle class="cls-3" cx="170.29" cy="564.23" r="2.28"/><circle class="cls-3" cx="177.61" cy="575.06" r="2.28"/><circle class="cls-3" cx="190.27" cy="573.75" r="2.28"/><circle class="cls-3" cx="179.22" cy="588.31" r="2.28"/><circle class="cls-3" cx="185.37" cy="600.16" r="2.28"/><circle class="cls-3" cx="183.75" cy="609.67" r="2.28"/><circle class="cls-3" cx="176.94" cy="614.06" r="2.28"/><circle class="cls-3" cx="163.48" cy="595.7" r="2.28"/><circle class="cls-3" cx="169.48" cy="634.92" r="2.28"/><circle class="cls-3" cx="171.76" cy="647.79" r="2.28"/><circle class="cls-3" cx="178.85" cy="663" r="2.28"/><circle class="cls-3" cx="129.22" cy="652.88" r="2.28"/><circle class="cls-3" cx="135.29" cy="643.59" r="2.28"/><circle class="cls-3" cx="125.42" cy="629.85" r="2.28"/><circle class="cls-3" cx="125.42" cy="618.88" r="2.28"/><circle class="cls-3" cx="134.35" cy="612.66" r="2.28"/><circle class="cls-3" cx="119.78" cy="605.71" r="2.28"/><circle class="cls-3" cx="113.27" cy="598.68" r="2.28"/><circle class="cls-3" cx="126.37" cy="592.53" r="2.28"/><circle class="cls-3" cx="120.35" cy="576.56" r="2.28"/><circle class="cls-3" cx="119.11" cy="560.81" r="2.28"/><circle class="cls-3" cx="113.38" cy="565.7" r="2.28"/><circle class="cls-3" cx="116.83" cy="546.68" r="2.28"/><circle class="cls-3" cx="110.99" cy="540.09" r="2.28"/><circle class="cls-3" cx="109.02" cy="520.05" r="2.28"/><circle class="cls-3" cx="188.3" cy="386.51" r="2.28"/><circle class="cls-3" cx="199.69" cy="305.75" r="2.28"/><circle class="cls-3" cx="184.51" cy="308.53" r="2.28"/><circle class="cls-3" cx="194.32" cy="316.48" r="2.28"/><circle class="cls-3" cx="182.23" cy="270.12" r="2.28"/><circle class="cls-3" cx="194.66" cy="266.09" r="2.28"/><circle class="cls-3" cx="232.52" cy="260.96" r="2.28"/><circle class="cls-3" cx="230.24" cy="272.24" r="2.28"/><circle class="cls-3" cx="234.41" cy="284.31" r="2.28"/><circle class="cls-3" cx="245.12" cy="277.42" r="2.28"/><circle class="cls-3" cx="252.8" cy="272.24" r="2.28"/><circle class="cls-3" cx="254.55" cy="282.03" r="2.28"/><circle class="cls-3" cx="247.31" cy="288.03" r="2.28"/><circle class="cls-3" cx="240.05" cy="292.73" r="2.28"/><circle class="cls-3" cx="247" cy="298.08" r="2.28"/><circle class="cls-3" cx="255.08" cy="300.94" r="2.28"/><circle class="cls-3" cx="248.48" cy="314.16" r="2.28"/><circle class="cls-3" cx="253.2" cy="325.9" r="2.28"/><circle class="cls-3" cx="265.07" cy="349.24" r="2.28"/><circle class="cls-3" cx="258.48" cy="364.17" r="2.28"/><circle class="cls-3" cx="264.63" cy="375.29" r="2.28"/><circle class="cls-3" cx="261.48" cy="391.68" r="2.28"/><path class="cls-3" d="M251.15,262.76c.48,1.16,1.93,2.5.76,3a2.28,2.28,0,0,1-1.74-4.21C251.33,261.05,250.67,261.6,251.15,262.76Z"/><circle class="cls-3" cx="229.66" cy="245.65" r="2.28"/><circle class="cls-3" cx="226.48" cy="253.4" r="2.28"/><circle class="cls-3" cx="168.12" cy="247.29" r="2.28"/><circle class="cls-3" cx="170.51" cy="222.9" r="2.28"/><circle class="cls-3" cx="169.09" cy="210.53" r="2.28"/><circle class="cls-3" cx="180.38" cy="209.89" r="2.28"/><circle class="cls-3" cx="189.28" cy="225.73" r="2.28"/><circle class="cls-3" cx="162.27" cy="199.33" r="2.28"/><circle class="cls-3" cx="162.27" cy="188.57" r="2.28"/><circle class="cls-3" cx="165.01" cy="180.67" r="2.28"/><circle class="cls-3" cx="119.91" cy="226.23" r="2.28"/><circle class="cls-3" cx="128.05" cy="245.65" r="2.28"/><circle class="cls-3" cx="110.11" cy="270.81" r="2.28"/><circle class="cls-3" cx="108.19" cy="276.41" r="2.28"/><circle class="cls-3" cx="104.35" cy="287.4" r="2.28"/><circle class="cls-3" cx="131.03" cy="275.55" r="2.28"/><circle class="cls-3" cx="122.68" cy="283.12" r="2.28"/><circle class="cls-3" cx="107.56" cy="201.61" r="2.28"/><circle class="cls-3" cx="97.58" cy="187.94" r="2.28"/><circle class="cls-3" cx="104.05" cy="158.75" r="2.28"/><circle class="cls-3" cx="96.04" cy="163.3" r="2.28"/><circle class="cls-3" cx="84.73" cy="163.3" r="2.28"/><circle class="cls-3" cx="86.16" cy="176.91" r="2.28"/><circle class="cls-3" cx="86.16" cy="194.25" r="2.28"/><circle class="cls-3" cx="88.44" cy="205.34" r="2.28"/><circle class="cls-3" cx="81.08" cy="212.8" r="2.28"/><circle class="cls-3" cx="78.81" cy="223.45" r="2.28"/><circle class="cls-3" cx="73.7" cy="230.61" r="2.28"/><circle class="cls-3" cx="68.11" cy="218.1" r="2.28"/><circle class="cls-3" cx="82.46" cy="234.1" r="2.28"/><circle class="cls-3" cx="75.98" cy="249.57" r="2.28"/><circle class="cls-3" cx="70.38" cy="245.02" r="2.28"/><circle class="cls-3" cx="65.23" cy="255.22" r="2.28"/><circle class="cls-3" cx="68.11" cy="263.24" r="2.28"/><circle class="cls-3" cx="70.85" cy="271.69" r="2.28"/><circle class="cls-3" cx="67.5" cy="284.31" r="2.28"/><circle class="cls-3" cx="48.71" cy="288.81" r="2.28"/><circle class="cls-3" cx="40.44" cy="307.32" r="2.28"/><circle class="cls-3" cx="46.43" cy="317.31" r="2.28"/><circle class="cls-3" cx="40.66" cy="331.32" r="2.28"/><circle class="cls-3" cx="38.47" cy="337.58" r="2.28"/><circle class="cls-3" cx="33.59" cy="350.65" r="2.28"/><circle class="cls-3" cx="31.3" cy="357.3" r="2.28"/><circle class="cls-3" cx="54.44" cy="250.05" r="2.28"/><circle class="cls-3" cx="46.43" cy="265.51" r="2.28"/><circle class="cls-3" cx="86.16" cy="223.45" r="2.28"/></g></g><g id="body_1_copy_3-2" data-name="body 1 copy 3"><path class="cls-4" d="M262.55,310.4c-.63-4.28-4-32.7-6.48-41.48s-20.58-44.62-22-58.91c-.28-2.81-2.24-16.39-2.31-29.34A141,141,0,0,0,230.13,158c-2.56-13.64-19.61-23.16-26.59-23.74-3.85-.32-10.65-6.07-13.54-7.46s-15.15-5-17.12-6.41-4-4.39-3.95-6.25,0-10.8,1.75-15.52a53.48,53.48,0,0,0,2.42-9.65s.44,1.2,2.41,0,4-9.66,4-9.66,1.32-10.21-1.53-10.32c-1.23,0-1.77,0-2,0,0-.9,0-15.2-.88-18.39s-6.35-18.82-25.49-18.33c-19.13-.49-24.61,15-25.48,18.33s-.88,17.49-.88,18.39c-.22,0-.75,0-2,0-2.85.11-1.53,10.32-1.53,10.32s2,8.45,4,9.66,2.41,0,2.41,0a53.48,53.48,0,0,0,2.42,9.65c1.75,4.72,1.68,13.71,1.75,15.52s-2,4.83-4,6.25-14.12,5-17.12,6.41-9.7,7.14-13.54,7.46c-7,.58-24,10.1-26.59,23.74-1,5.49-1.6,14-1.65,22.72-.07,13-2,26.53-2.31,29.34-1.4,14.29-19.51,50.13-22,58.91s-5.85,37.2-6.48,41.48-8,42.7-7.35,55.32c.23,4.88,2.19,24.15,5.16,32.27,1,2.64,2.19,5,5.21,4.5s2.14-5,2.14-5l-1.26-3.3s2.13.34,2.8-.27.43-3.18.43-3.18-2.25-5.44-3.62-9.83-.22-11.36,1-10.37,5.16,6.8,6.59,7.68a3,3,0,0,0,3.73-.11c.34-.4.37-2.78-1.66-7.67-3.06-7.36-5.7-10.85-6.3-15.6-.67-5.28,1.76-22.55,8.89-36.1,2.77-5.27,20.31-32.88,22.83-42.7s2.85-19.43,3.73-23.82,11.75-29,13.12-32.92,4.61-20.42,4.61-20.42,4.5,27.93,5,35.56.05,25.8-.06,30.84-5.27,16-5.43,21.85.33,19.59.44,22.39-10.22,41-8.56,80.56c2,47.3,17.34,81.87,17.34,107.34,0,10-2.69,44.56-2,59.71s12.84,69.31,12.84,73.92-1.73,15.13-1.86,17.17-.28,5.38-.44,6.81-1,1.64-1.7,3.18-.88,3.3-1.7,4.45-7.58,6.8-9.11,12,6.58,3.46,6.58,3.46,9.77-.28,12.18-.39,5.93.12,10.43.39,8.23.27,10.65-3.35c2.18-3.28-.22-16.77-.69-18.32a45,45,0,0,0,.69-6.49c0-2.36-3-11.79-3.46-15.14s-.5-29.57.27-36.17,6.21-32.81,6.15-52-3.24-17.56-4.06-28.92,1.43-18.83,3.62-34.3,2.63-98.18,2.63-98.18l3.1-.69,3.11.69s.43,82.7,2.63,98.18,4.44,22.94,3.62,34.3-4,9.71-4.06,28.92,5.36,45.43,6.14,52,.72,32.82.28,36.17-3.46,12.78-3.46,15.14a45,45,0,0,0,.69,6.49c-.47,1.55-2.88,15-.69,18.32,2.42,3.62,6.15,3.62,10.65,3.35s8-.5,10.42-.39,12.19.39,12.19.39,8.12,1.7,6.58-3.46-8.28-10.82-9.11-12-1-2.91-1.7-4.45-1.53-1.76-1.7-3.18-.31-4.76-.44-6.81-1.86-12.56-1.86-17.17,12.12-58.78,12.84-73.92-2-49.72-2-59.71c0-25.47,15.37-60,17.34-107.34,1.66-39.6-8.67-77.77-8.56-80.56s.61-16.58.44-22.39-5.32-16.8-5.43-21.85-.61-23.21-.06-30.84,5-35.56,5-35.56,3.24,16.46,4.61,20.42,12.24,28.53,13.12,32.92,1.16,14,3.73,23.82c2.65,10.12,20.08,37.48,22.83,42.7,7.14,13.55,9.56,30.82,8.89,36.1-.61,4.75-3.24,8.24-6.3,15.6-2,4.89-2,7.27-1.66,7.67a3,3,0,0,0,3.73.11c1.43-.88,5.38-6.69,6.59-7.68s2.36,6,1,10.37-3.63,9.83-3.63,9.83-.32,2.46.44,3.18,2.8.27,2.8.27l-1.26,3.3s-.88,4.5,2.14,5,4.25-1.86,5.21-4.5c3-8.12,4.93-27.39,5.16-32.27C270.51,353.1,263.18,314.69,262.55,310.4Z"/></g></g><g id="body_white_copy_2" data-name="body white copy 2"><g id="body_1_copy_4" data-name="body 1 copy 4"><path class="cls-5" d="M262,310.4c-.64-4.28-4-32.7-6.48-41.48s-20.58-44.62-22-58.91c-.28-2.81-2.23-16.39-2.3-29.34A141,141,0,0,0,229.57,158C227,144.31,210,134.79,203,134.21c-3.84-.32-10.64-6.07-13.53-7.46s-15.15-5-17.13-6.41-4-4.39-3.95-6.25,0-10.8,1.76-15.52a53,53,0,0,0,2.41-9.65s.44,1.2,2.42,0,4-9.66,4-9.66,1.32-10.21-1.54-10.32c-1.22,0-1.76,0-2,0,0-.9,0-15.2-.88-18.39S168.16,31.68,149,32.17c-19.14-.49-24.61,15-25.49,18.33s-.87,17.49-.87,18.39c-.22,0-.75,0-2,0-2.85.11-1.54,10.32-1.54,10.32s2,8.45,4,9.66,2.42,0,2.42,0a54,54,0,0,0,2.41,9.65c1.76,4.72,1.69,13.71,1.76,15.52s-2,4.83-4,6.25-14.12,5-17.12,6.41-9.7,7.14-13.54,7.46c-7,.58-24,10.1-26.6,23.74-1,5.49-1.59,14-1.64,22.72-.08,13-2,26.53-2.31,29.34-1.41,14.29-19.52,50.13-22,58.91s-5.84,37.2-6.47,41.48-8,42.7-7.36,55.32c.24,4.88,2.2,24.15,5.16,32.27,1,2.64,2.2,5,5.22,4.5s2.14-5,2.14-5L40,394.2s2.14.34,2.8-.27.44-3.18.44-3.18-2.25-5.44-3.62-9.83-.22-11.36,1-10.37,5.16,6.8,6.58,7.68a3,3,0,0,0,3.73-.11c.35-.4.38-2.78-1.65-7.67-3.06-7.36-5.7-10.85-6.3-15.6-.67-5.28,1.75-22.55,8.89-36.1,2.77-5.27,20.3-32.88,22.83-42.7s2.85-19.43,3.73-23.82,11.74-29,13.11-32.92,4.61-20.42,4.61-20.42,4.5,27.93,5,35.56.06,25.8,0,30.84-5.27,16-5.43,21.85.32,19.59.43,22.39-10.21,41-8.56,80.56c2,47.3,17.34,81.87,17.34,107.34,0,10-2.68,44.56-2,59.71s12.84,69.31,12.84,73.92-1.69,15.13-1.87,17.17c-.27,3.2-.31,5.66-.48,7.09s-.94,1.36-1.66,2.9-.87,3.3-1.7,4.45-7.57,6.8-9.11,12,6.59,3.46,6.59,3.46,9.77-.28,12.18-.39,5.93.12,10.43.39,8.23.27,10.64-3.35c2.19-3.28-.21-16.77-.69-18.32a43.63,43.63,0,0,0,.69-6.49c0-2.36-3-11.79-3.45-15.14s-.51-29.57.27-36.17,6.2-32.81,6.15-52-3.24-17.56-4.06-28.92,1.42-18.83,3.62-34.3,2.63-98.18,2.63-98.18l3.1-.69,3.11.69s.43,82.7,2.62,98.18,4.45,22.94,3.63,34.3-4,9.71-4.07,28.92,5.37,45.43,6.15,52,.71,32.82.28,36.17-3.46,12.78-3.46,15.14a43.63,43.63,0,0,0,.69,6.49c-.47,1.55-2.88,15-.69,18.32,2.41,3.62,6.14,3.62,10.64,3.35s8-.5,10.43-.39,12.18.39,12.18.39,8.13,1.7,6.59-3.46-8.29-10.82-9.11-12-1-2.91-1.7-4.45-1.54-1.76-1.7-3.18-.31-4.76-.44-6.81-1.87-12.56-1.87-17.17,12.13-58.78,12.84-73.92-2-49.72-2-59.71c0-25.47,15.36-60,17.34-107.34,1.65-39.6-8.67-77.77-8.56-80.56s.6-16.58.44-22.39-5.33-16.8-5.43-21.85-.61-23.21-.06-30.84,5-35.56,5-35.56,3.24,16.46,4.61,20.42,12.24,28.53,13.11,32.92,1.16,14,3.74,23.82c2.65,10.12,20.08,37.48,22.83,42.7,7.14,13.55,9.56,30.82,8.89,36.1-.61,4.75-3.24,8.24-6.3,15.6-2,4.89-2,7.27-1.66,7.67a3,3,0,0,0,3.73.11c1.43-.88,5.38-6.69,6.59-7.68s2.36,6,1,10.37-3.62,9.83-3.62,9.83-.33,2.46.44,3.18,2.8.27,2.8.27l-1.26,3.3s-.88,4.5,2.14,5,4.25-1.86,5.21-4.5c3-8.12,4.93-27.39,5.16-32.27C269.94,353.1,262.62,314.69,262,310.4Z"/></g><g id="regions_copy_4" data-name="regions copy 4"><g id="orange_copy_4" data-name="orange copy 4"><path class="cls-6" d="M206.62,181.22c1.4-8.12-10.91-15.8-13.17-22.17s3.07-13.87-5.27-14.38-24.22,11-25.24,15.92,3.84,17.7,3.4,25S161.29,215,161.29,215s-3.62,15.47-6.92,19.86-12.94,6.51-13.89,12.59.83,7.39,1.38,11.45-3.1,13.39-.66,17.78,5.82,11.85,17.89,11.85,17.57-12.62,17.57-12.62,10.31-13.28,12.73-21.62S187,224.14,188,217.44,205.22,189.34,206.62,181.22Z"/><path class="cls-6" d="M196.76,256.21s-18.9,11.39-20.43,31.14,25.71,23,25.71,23,.06-4.94.22-11.47c.09-4.23.57-9.12-.08-13.8-.73-5.22-3.31-10.74-4.48-15.88C196.91,265.76,196.85,266.16,196.76,256.21Z"/><path class="cls-6" d="M101.12,234.79c.22,4.49,24.47,58.27,31.85,48.06s3.68-13.39,4.75-20.08.08-17.23-5-20.09-14.49-10.43-17.56-18.54-5.49-37.76-5.71-56.53-2.38-19.7-11.06-19.76-9.24,12.74-9.9,18.44,5.2,38.8,6.09,36.5A37.17,37.17,0,0,0,96,198.4S100.89,230.29,101.12,234.79Z"/><path class="cls-6" d="M89,225.54c0-.55-.51-18.43-6.22-18.87s-9.11,7.9-12.84,13.5,7.88,36.19,7.88,36.19a35,35,0,0,1,1.84-7.93C81.08,244.55,89,225.54,89,225.54Z"/><path class="cls-6" d="M76.38,267.46c-6.69-9.66-9.2-38-12.38-39.33s-4.07,2.57-4.07,2.57l-3.07,8.41s-3.58,41.81,12.54,48.95A72.16,72.16,0,0,0,74,278.17,47.86,47.86,0,0,0,76.38,267.46Z"/><path class="cls-6" d="M60.11,304.61c.77-4.61-16.86-36.54-17.58-35.69s-3.34,18.34-3.34,18.34l-2.36,17.31S51,320,53.62,315.57Z"/><path class="cls-6" d="M51.64,319c-5.16-1.43-15.45-9.57-15.45-9.57l-3.66,21.64a24.15,24.15,0,0,0,15.56-3.91l1.47-3.75Z"/><path class="cls-6" d="M95.64,292.43c3.31,5.1,20,.74,22.52-7.16s-16.85-30.51-16.85-30.51a88,88,0,0,1-.11,10.75c-.44,4.62-3.41,11.77-5,17.8A28.77,28.77,0,0,0,95.64,292.43Z"/><path class="cls-6" d="M220.71,260.46l20-27.11s12.77,29.24,14.52,34.66,1.64,7.57,1.64,7.57l-24.67,19s-7.23-13.12-8.69-18.3A121.32,121.32,0,0,1,220.71,260.46Z"/><polygon class="cls-6" points="234.41 298.41 258.04 282.56 262.73 315.51 249.07 324.95 245.94 318.28 234.41 298.41"/><path class="cls-6" d="M251.21,330.45s4.8,15.79,4,23.48c-.66,6.28-6.55,16.1-7.07,18.27-.36,1.54-2.4,6.08.22,6.55s5.24-3.46,5.24-3.46,3.5-5,4.21-4.82c.88.16,1.58,2.5,1.22,7.35-.27,3.7-3.76,11.68-4,12.61s-.65,2.52.5,3.63c.69.66,2.19.07,2.61.14s-.66,1.84-1.17,3.05-.27,4.76,2.17,5.26,3.78-1.27,5-4.14c1.79-4.38,4.82-20.47,5.32-35,.34-9.62-5.15-39.78-5.35-41.44Z"/><path class="cls-6" d="M193.57,508.68s-23,9.66-23.28,13.76,6.43,19,3.21,38.7-12.65,44-12.65,44,.71,30.79-.37,36.17c-.82,4.09-2.78,6.51-2.78,9.14s2.05,12.07,13.83,7.54,11.49-6.81,12.22-9.88-1-7.47-1.44-17.2c-.08-1.73,4.72-26.06,7.85-41.6,2.64-13.16,4-22.2,4.91-29.56C196.3,550.14,193.57,508.68,193.57,508.68Z"/><path class="cls-6" d="M104.51,509.28s11.63,2.85,11.85,11S112.7,553.4,117.83,573,128,601.07,137.1,608.39c-.07,2.91-.38,21.92.15,25.83.76,5.62,3.84,13,3.41,16.94s-1.1,2.12-5.64,1.39-20.27-28-20.27-28-1.81-9.4-4.19-21.44c-3.38-17.14-7.7-39.75-7.77-49.28C102.7,542.08,104.51,509.28,104.51,509.28Z"/><path class="cls-6" d="M115.23,637.55c-.18.37,10.31,8.14,9.25,16.61S108.74,664,108.74,664a4.59,4.59,0,0,0,1.69-2.06c.44-1.05.83-2.48,1.25-3.67s1.31-1.37,1.62-2.51c.37-1.37.31-5.4.61-8C114.48,642.94,115.23,637.55,115.23,637.55Z"/></g><g id="blue_copy_6" data-name="blue copy 6"><path class="cls-7" d="M162.21,35a68.75,68.75,0,0,0-13.57,29.66c2.58-9.93,13.17-24.31,18-26.61,0,0-.37-.35-1.58-1.31A16.65,16.65,0,0,0,162.21,35Z"/><path class="cls-7" d="M155.4,32.65s-6.82,11.49-15.05,19.25a55.25,55.25,0,0,1-17.51,11V58.35s13.56-7.25,15.59-12.27S138,34,138,34a35.58,35.58,0,0,1,8.64-1.79A61.17,61.17,0,0,1,155.4,32.65Z"/><path class="cls-7" d="M209.29,361.53c-.43-7.8-18.07-37.81-24.73-40.81s-13.54-2.49-21.88-6.8S151,300.44,137,297s-33,4.77-38.55,7.92c-.59-1,12-10.83,23.85-12.52,14.63-2.07,37.76-1.17,48.29,5.35s36.66,42.73,37.68,50.56A112.25,112.25,0,0,1,209.29,361.53Z"/><path class="cls-7" d="M209.57,403.68c-10-6.44-10.25-32.73-12.13-38.62-9.3-29.05-27.88-39.95-39.81-40.31,29-4,53,51.47,53,51.47S210.88,393.73,209.57,403.68Z"/><path class="cls-7" d="M186.76,396.53S171,356.06,160,350.57s-15.44-2.78-22.24-4.24S95,323.12,93.13,325.1l-.76,4.17c3.88,3.22,36,14.57,40.16,19.84s14.83,17.63,21.73,20.78,7.91,2.71,14.27,6.51,16,20.05,16,20.05l2.2.08"/><path class="cls-7" d="M183.09,356.94c-.8-13.76-26.82-23.36-34.6-24.53-6.29-1-9.66,1.48-21.59-2.1s-32.09-13.76-32.09-13.76l.92-4.57.36-2.45s22.54-7,33.59-2.35,17.83,20.2,24.17,22.61S187.66,344.56,183.09,356.94Z"/><path class="cls-7" d="M153,385.26c-10-24.73-62-48-62-48l-1.5,10.68-1.17,11.34s16.41-2.85,21.63-2.34S130.52,359.28,153,385.26Z"/><path class="cls-7" d="M145.77,397.66s-21.65-25.87-30.51-28.79-27.53-.9-27.53-.9l-.36,5.76a74.51,74.51,0,0,0,24,18c15.36,7.32,34.38,8.76,34.38,8.76Z"/><path class="cls-7" d="M111.94,405.45c-13,6.88-22.91,3.79-22.91,3.79L88,397.38l-.58-13.09S104,401.87,111.94,405.45Z"/><path class="cls-7" d="M141.52,666.09s-12.72.35-19.8,2c-14.54,3.4-18.53,10.33-20.27,7.7,3.21-5.95,8.71-10.17,20.64-12.88s19-.79,19-.79Z"/><path class="cls-7" d="M187.52,667.29c-2.27,0-3,1.52-4.94,1.65s-9.55-6.66-15.25-7.45a32.38,32.38,0,0,0-10.32.21l-.56,5.44,11.33,11a102.09,102.09,0,0,1,11.07-.48c4.85.08,10.66.55,12,.27,3-.6,2.93,0,3.17-2.49C194.33,672.59,189.8,667.29,187.52,667.29Z"/><path class="cls-7" d="M145.77,402.62s-7.9,9.13-12.58,11.17-11.66.35-11.66,2.27,6.83,3.44,13.2,1.17,11-9.14,11-9.14Z"/><polygon class="cls-7" points="43.31 346.26 30.32 345.83 30.74 342.78 43.84 342.93 43.31 346.26"/><path class="cls-7" d="M43.08,355.87c-2.2,2.14-13.51-4-13.51-4l.31-2.63,13,2s0,2.09,0,2.55S43.08,355.87,43.08,355.87Z"/><path class="cls-7" d="M48.71,369.26C47.83,366.81,29,358,29,358l-.25,4s19.8,10.34,22.18,13.74c0,0-.36-1.63-1-3.51C49.57,371.22,49,370.1,48.71,369.26Z"/><path class="cls-7" d="M39,377.87c.08-1.89-9.89-6.88-9.89-6.88s.29,4.55,2,15.37c1,6.21,2,10.44,3.55,13.56,1.19,2.45,3.26,3.21,5.28,2.26,1.76-.83,1.56-4.28.52-6.61-.68-1.51-.55-1.44-.55-1.44l.87.16s1.73.15,2.05-.47c.66-1.28.45-2.55-.13-4.12C41.83,387.32,38.93,380,39,377.87Z"/><path class="cls-7" d="M234.45,298.47c.29-.22,23.59-15.91,23.59-15.91s-.84-7.2-1.21-7-24.69,19.13-24.69,19.13Z"/><polygon class="cls-7" points="249.07 324.95 262.73 315.51 263.91 321.95 251.09 330.45 249.07 324.95"/></g><g id="light_green_copy_6" data-name="light green copy 6"><path class="cls-8" d="M136.7,154.84c14.05,0,24.59,11.12,24.59,23.71s-3.07,37.9-6.29,45.37-8.2,11.41-16.69,12.29-12.44-4.54-18.58-15.81-6.15-39.65-5-47.85S122.66,154.84,136.7,154.84Z"/><path class="cls-8" d="M230.69,185.57s-20.08-2.47-22.43-19,12.58-22.2,12.58-22.2,8.42,6.38,9.23,19.71C230.72,174.89,230.69,185.57,230.69,185.57Z"/><path class="cls-8" d="M231.85,194.2c0-1.53-9.88-6.58-16.85-7.6s-10.1,9-10.1,9a43.67,43.67,0,0,0,2.33,25.49c5.54,13.41,11.46,28,11.46,28s18.13-13.62,18.13-26.2C233,214.32,231.86,195.64,231.85,194.2Z"/><path class="cls-8" d="M196.66,249c0,.12-.24.18-.28.07-1.07-2.77-6-16.26-5.09-26.71,1-11.71,10.78-25.32,10.78-25.32s-3.7,25.6-4.38,30.38A142.27,142.27,0,0,0,196.66,249Z"/><path class="cls-8" d="M62.07,220.4c1.32-1.17,20.63-19.61,22.1-36s-12-35.05-12-35.05S67.26,152.92,67,173c-.13,10.26-.54,19.47-1.34,27C64.26,213.29,62.07,220.4,62.07,220.4Z"/><path class="cls-8" d="M67.35,291.91C55.72,275.66,51.5,247.18,51.5,247.18s-3.35,7.67-5.07,11.56-3.7,9.25-3.7,9.25S55.59,291.23,64.8,296.5Z"/><path class="cls-8" d="M138.9,516.89s-24.29-1.32-18.44,40.1,16.83,44.78,16.83,44.78,5.56-29.56,5.56-48.44A188.15,188.15,0,0,0,138.9,516.89Z"/><path class="cls-8" d="M160.7,595.92s8-13.32,9.66-43.61-11.49-33.22-11.49-33.22-5.69,18.65-3.65,34.39Z"/></g><g id="green_copy_6" data-name="green copy 6"><path class="cls-9" d="M179.22,123.1c7.21,2.39,7.61,17.2-8.12,25.94-6.08,3.38-15.19-5.67-17.09-13.2s-2.6-14.82-3.33-21-8.12-16.9-6.81-28.75,2.94-21.87,13.47-21.87c5.57,0,2.29,9.91,3.36,17.48,1,6.76,6.7,14.88,7.69,21,.8,5-.7,11.41.34,13.09C170.61,120.22,173.14,121.09,179.22,123.1Z"/><path class="cls-9" d="M177.36,68.94c-3.5,0-12.83,2-12.45,8.07s5.18,16.56,6.44,17.6L172.53,89s.75,1.33,2.88-.49c1.09-.93,3.22-7.07,3.53-9.63S179.71,68.94,177.36,68.94Z"/><path class="cls-9" d="M175.31,64s-12.26-.65-12.75-8.88S169,40.4,169,40.4s4.69,5.4,5.64,10.93C175.38,55.43,175.31,64,175.31,64Z"/><path class="cls-9" d="M120.51,82.22c-.27-8.78,12.41-18.49,16.25-19.7,4.43-1.39,7.74-2.63,8.4-.38a9.57,9.57,0,0,1-1.32,8.06c-1.92,3-4.61,16.36-4.12,21a63.87,63.87,0,0,0,5,19.43c3,6.53,2.82,13.74,3,20.69.44,15.69-7.18,17.12-20.85,19.64s-24.64-16.55-23.87-20.5,21.86-8.31,23.39-10.78c.52-.83,2.59-1.83,3-4.55.55-3.48,0-10.12-.82-14.38-.55-2.91-2.58-6.53-3-12-.13-1.59.16.86-1,.7C121.92,89.1,120.6,84.88,120.51,82.22Z"/><path class="cls-9" d="M76.36,144.42s4.37,4.64,9.27,2.15,7.17-11.95,7.17-11.95-7.21,2.48-10.21,4.75S76.36,144.42,76.36,144.42Z"/><path class="cls-9" d="M207.56,419.56c-1.6,3.23-23,2.67-28.27-.57-3.47-2.12-9.88-6.22-6.88-14.56s9.4-8,13.1-8c7.1,0,23.93,8.49,23.93,8.49S207.74,419.2,207.56,419.56Z"/><path class="cls-9" d="M195.76,475.74c-.06,1.33-24.74-32.6-21.45-44.53s30.27-4.08,31.22,0C205.74,432.12,195.83,474.42,195.76,475.74Z"/><path class="cls-9" d="M165.61,419.57c3.36.44,3.22,19.1,4.17,24.66s22.39,29.34,23.27,39.73-1.54,21.22-11.86,25.1-17.78-9.14-20.41-18.29-6.92-25.93-7.43-31.15-.62-28.76-.72-30.27C152.39,425.55,162.24,419.14,165.61,419.57Z"/><path class="cls-9" d="M144.94,417.75c-2.13-4-46.21,38.19-38.16,68.7s32,26.39,32.56,24.88c1.36-19.39,3.51-17.3,4.38-32C145.11,455.52,146.21,420.16,144.94,417.75Z"/><path class="cls-9" d="M100.34,466.64c5.12-19.09,25.73-37,25.1-43.55S95.1,443.77,95.1,443.77,97.63,455.06,100.34,466.64Z"/><path class="cls-9" d="M93.79,437.75c.22,0,9.88-6.44,9.88-13.17s-13.45-6.79-13.45-6.79Z"/><path class="cls-9" d="M215.29,139.32c2.62,1.58.58,10.84-12.15,10.84s-15.56-24.22-14.44-23.74c3.33,1.43,4.56,3,10.38,6.39C203.9,135.6,203.8,132.41,215.29,139.32Z"/></g></g><g id="dots_copy_4" data-name="dots copy 4"><g id="light_green_copy_6-2" data-name="light green copy 6"><circle class="cls-10" cx="97.72" cy="323.42" r="2.49"/><circle class="cls-10" cx="109.2" cy="344.49" r="2.48"/><circle class="cls-10" cx="99.57" cy="354.05" r="2.96"/><circle class="cls-10" cx="92.32" cy="366.04" r="1.93"/><circle class="cls-10" cx="101.66" cy="372.53" r="2.41"/><circle class="cls-10" cx="100.13" cy="379.17" r="2.4"/><circle class="cls-10" cx="99.05" cy="386.53" r="3.32"/><circle class="cls-10" cx="113.5" cy="371.63" r="1.83"/><circle class="cls-10" cx="122.66" cy="390.81" r="2.48"/></g><g id="red_copy_4" data-name="red copy 4"><circle class="cls-11" cx="165.92" cy="48.36" r="1.37"/><circle class="cls-11" cx="172.61" cy="52.97" r="1.37"/><circle class="cls-11" cx="164.55" cy="64.28" r="1.37"/><circle class="cls-11" cx="168.66" cy="68.59" r="1.37"/><circle class="cls-11" cx="169.87" cy="76.8" r="1.37"/><circle class="cls-11" cx="161.73" cy="72.87" r="1.37"/><circle class="cls-11" cx="164.55" cy="82.09" r="1.37"/><circle class="cls-11" cx="136.7" cy="68.59" r="1.37"/><circle class="cls-11" cx="138.72" cy="70.31" r="1.37"/><circle class="cls-11" cx="136.7" cy="72.31" r="1.37"/><circle class="cls-11" cx="137.34" cy="79.59" r="1.37"/><circle class="cls-11" cx="133.36" cy="90.12" r="1.37"/><circle class="cls-11" cx="129.97" cy="95.61" r="1.37"/><circle class="cls-11" cx="128.6" cy="90.85" r="1.37"/><circle class="cls-11" cx="136.7" cy="103.51" r="1.37"/><circle class="cls-11" cx="143.42" cy="101.83" r="1.37"/><circle class="cls-11" cx="168.5" cy="95.61" r="1.37"/><circle class="cls-11" cx="161.73" cy="109.62" r="1.37"/><circle class="cls-11" cx="170.8" cy="121.68" r="1.37"/><circle class="cls-11" cx="172.79" cy="124.83" r="1.37"/><circle class="cls-11" cx="162.27" cy="134.28" r="1.37"/><circle class="cls-11" cx="173.55" cy="137.65" r="1.37"/><circle class="cls-11" cx="187.98" cy="137.65" r="1.37"/><circle class="cls-11" cx="182" cy="141.67" r="1.37"/><circle class="cls-11" cx="177.08" cy="146.06" r="1.37"/><circle class="cls-11" cx="166.81" cy="151.14" r="1.37"/><circle class="cls-11" cx="160.36" cy="160.63" r="1.37"/><circle class="cls-11" cx="160.36" cy="153.62" r="1.37"/><circle class="cls-11" cx="161.36" cy="148.81" r="1.37"/><circle class="cls-11" cx="155.27" cy="144.69" r="1.37"/><circle class="cls-11" cx="150.77" cy="137.65" r="1.37"/><circle class="cls-11" cx="151.43" cy="149.35" r="1.37"/><circle class="cls-11" cx="144.64" cy="149.35" r="1.37"/><circle class="cls-11" cx="138.08" cy="150.18" r="1.37"/><circle class="cls-11" cx="140.44" cy="129.45" r="1.37"/><circle class="cls-11" cx="136.7" cy="128.87" r="1.37"/><circle class="cls-11" cx="121.63" cy="128.87" r="1.37"/><circle class="cls-11" cx="128.2" cy="143.04" r="1.37"/><circle class="cls-11" cx="123" cy="152.51" r="1.37"/><circle class="cls-11" cx="116.71" cy="154.72" r="1.37"/><circle class="cls-11" cx="113.82" cy="162" r="1.37"/><circle class="cls-11" cx="131.98" cy="172.66" r="1.37"/><circle class="cls-11" cx="138.08" cy="179.96" r="1.37"/><circle class="cls-11" cx="157.54" cy="174.03" r="1.37"/><circle class="cls-11" cx="103.01" cy="143.04" r="1.37"/><circle class="cls-11" cx="94.67" cy="141.14" r="1.37"/><circle class="cls-11" cx="89.81" cy="149.35" r="1.37"/><circle class="cls-11" cx="83.36" cy="151.55" r="1.37"/><circle class="cls-11" cx="155.27" cy="156.36" r="1.37"/><circle class="cls-11" cx="161.36" cy="151.14" r="1.37"/><circle class="cls-11" cx="175.7" cy="134.28" r="1.37"/><circle class="cls-11" cx="185.85" cy="129.45" r="1.37"/><circle class="cls-11" cx="196.85" cy="135.65" r="1.37"/><circle class="cls-11" cx="194.88" cy="149.35" r="1.37"/><circle class="cls-11" cx="205.79" cy="152.25" r="1.37"/><circle class="cls-11" cx="201.2" cy="159.01" r="1.37"/><circle class="cls-11" cx="206.8" cy="162.2" r="1.37"/><circle class="cls-11" cx="203.95" cy="166.68" r="1.37"/><circle class="cls-11" cx="209.63" cy="175.4" r="1.37"/><circle class="cls-11" cx="212.11" cy="182.95" r="1.37"/><circle class="cls-11" cx="208.17" cy="174.03" r="1.37"/><circle class="cls-11" cx="148.48" cy="115.48" r="1.37"/><circle class="cls-11" cx="159.99" cy="124.48" r="1.37"/><circle class="cls-11" cx="140.73" cy="112.37" r="1.37"/><circle class="cls-11" cx="132.74" cy="111" r="1.37"/><circle class="cls-11" cx="131.37" cy="68.28" r="1.37"/><circle class="cls-11" cx="124.05" cy="184.94" r="2.49"/><circle class="cls-11" cx="126.37" cy="200.04" r="2.49"/><circle class="cls-11" cx="132.85" cy="203.41" r="2.49"/><circle class="cls-11" cx="122.41" cy="208.25" r="2.49"/><circle class="cls-11" cx="130.03" cy="215.82" r="2.49"/><circle class="cls-11" cx="175.21" cy="403.13" r="1.62"/><circle class="cls-11" cx="181.84" cy="407.33" r="1.24"/><circle class="cls-11" cx="173.58" cy="420.34" r="1.24"/><circle class="cls-11" cx="178.14" cy="424.3" r="1.24"/><circle class="cls-11" cx="196.26" cy="433.4" r="1.79"/><circle class="cls-11" cx="173.06" cy="438.35" r="1.24"/><circle class="cls-11" cx="169.39" cy="484.48" r="1.24"/><circle class="cls-11" cx="186.97" cy="506.54" r="1.24"/><circle class="cls-11" cx="191.3" cy="502.04" r="1.24"/><circle class="cls-11" cx="170.34" cy="522.68" r="1.24"/><circle class="cls-11" cx="163.64" cy="517.51" r="1.24"/><circle class="cls-11" cx="175.94" cy="511.81" r="1.24"/><circle class="cls-11" cx="169.39" cy="511.37" r="1.24"/><circle class="cls-11" cx="168.46" cy="508.51" r="1.24"/><circle class="cls-11" cx="163.64" cy="504.74" r="1.24"/><circle class="cls-11" cx="159.97" cy="498.8" r="1.24"/><circle class="cls-11" cx="171.2" cy="493.59" r="1.24"/><circle class="cls-11" cx="171.58" cy="466.45" r="1.24"/><circle class="cls-11" cx="141.45" cy="461.84" r="1.24"/><circle class="cls-11" cx="139.64" cy="469.33" r="1.24"/><circle class="cls-11" cx="125.7" cy="456.02" r="1.73"/><circle class="cls-11" cx="117.39" cy="455.51" r="1.73"/><circle class="cls-11" cx="122.22" cy="468.09" r="1.73"/><circle class="cls-11" cx="135.77" cy="453.24" r="1.73"/><circle class="cls-11" cx="141.3" cy="447.14" r="1.73"/><circle class="cls-11" cx="134.5" cy="446.57" r="1.73"/><circle class="cls-11" cx="114.42" cy="445.01" r="1.73"/><circle class="cls-11" cx="107.67" cy="459.44" r="1.73"/><circle class="cls-11" cx="105.42" cy="470.09" r="1.73"/><circle class="cls-11" cx="105.42" cy="483.7" r="1.73"/><circle class="cls-11" cx="107.67" cy="503.4" r="1.73"/><circle class="cls-11" cx="122.76" cy="515.36" r="1.73"/><circle class="cls-11" cx="129.29" cy="513.39" r="1.73"/><circle class="cls-11" cx="134.5" cy="502.63" r="1.73"/><circle class="cls-11" cx="127.28" cy="488.93" r="1.73"/><circle class="cls-11" cx="115.5" cy="480.59" r="1.73"/><circle class="cls-11" cx="137.51" cy="533.83" r="1.73"/><circle class="cls-11" cx="119.51" cy="523.07" r="1.73"/><circle class="cls-11" cx="129.94" cy="547.16" r="1.73"/><circle class="cls-11" cx="139.59" cy="568.29" r="1.73"/><circle class="cls-11" cx="136.8" cy="580.64" r="1.73"/><circle class="cls-11" cx="128.11" cy="572.01" r="1.73"/><circle class="cls-11" cx="133.47" cy="565.22" r="2.42"/><circle class="cls-11" cx="166.37" cy="535.66" r="2.42"/><circle class="cls-11" cx="183.54" cy="497.56" r="1.24"/><circle class="cls-11" cx="184.61" cy="494.03" r="1.24"/><circle class="cls-11" cx="182.31" cy="482.52" r="1.24"/><circle class="cls-11" cx="181.07" cy="480.11" r="1.24"/><circle class="cls-11" cx="187.71" cy="468.09" r="1.24"/><circle class="cls-11" cx="176.9" cy="452.98" r="1.24"/><circle class="cls-11" cx="191.44" cy="422.9" r="1.24"/><circle class="cls-11" cx="191.44" cy="454.9" r="1.24"/><circle class="cls-11" cx="197.91" cy="443.04" r="1.24"/><circle class="cls-11" cx="203.27" cy="424" r="1.24"/><circle class="cls-11" cx="200.06" cy="402.32" r="1.24"/><circle class="cls-11" cx="190.76" cy="413.16" r="1.24"/><circle class="cls-11" cx="170.63" cy="429.35" r="1.24"/><circle class="cls-11" cx="199.54" cy="415.9" r="1.24"/><circle class="cls-11" cx="100.13" cy="425.31" r="2.4"/><circle class="cls-11" cx="102.4" cy="434.66" r="1.26"/><circle class="cls-11" cx="97.34" cy="433.11" r="1.61"/><circle class="cls-11" cx="121.09" cy="436.6" r="1.58"/><circle class="cls-11" cx="140.24" cy="424.54" r="2.37"/></g><g id="blue_copy_6-2" data-name="blue copy 6"><circle class="cls-12" cx="189.08" cy="166.68" r="2.47"/><circle class="cls-12" cx="184.13" cy="168.05" r="2.47"/><circle class="cls-12" cx="180.38" cy="161.03" r="2.47"/><circle class="cls-12" cx="184.48" cy="152.25" r="2.47"/><circle class="cls-12" cx="172.79" cy="164.21" r="2.47"/><circle class="cls-12" cx="174.23" cy="175.4" r="2.47"/><circle class="cls-12" cx="176.7" cy="190.22" r="2.47"/><circle class="cls-12" cx="186.95" cy="196.99" r="2.47"/><circle class="cls-12" cx="198.73" cy="181.66" r="2.47"/><circle class="cls-12" cx="211.31" cy="203.06" r="2.47"/><circle class="cls-12" cx="222.29" cy="199.46" r="2.47"/><circle class="cls-12" cx="219" cy="177.68" r="2.47"/><circle class="cls-12" cx="223.31" cy="169.92" r="2.47"/><circle class="cls-12" cx="224.76" cy="154.72" r="2.47"/><circle class="cls-12" cx="215.37" cy="160.83" r="2.47"/><circle class="cls-12" cx="71.43" cy="163.11" r="2.47"/><circle class="cls-12" cx="75.14" cy="178.2" r="2.47"/><circle class="cls-12" cx="78.26" cy="190.85" r="2.47"/><circle class="cls-12" cx="52.59" cy="269.76" r="2.47"/><circle class="cls-12" cx="56.92" cy="280.43" r="2.47"/><circle class="cls-12" cx="220.31" cy="214.65" r="2.47"/><circle class="cls-12" cx="209.63" cy="213.7" r="2.47"/><circle class="cls-12" cx="212.63" cy="226.57" r="2.47"/><circle class="cls-12" cx="227.63" cy="225.73" r="2.47"/><circle class="cls-12" cx="222.29" cy="239.12" r="2.47"/><circle class="cls-12" cx="151.43" cy="198.13" r="2.47"/><circle class="cls-12" cx="147.11" cy="223.76" r="2.47"/><circle class="cls-12" cx="131.2" cy="229.05" r="2.47"/><circle class="cls-12" cx="181.93" cy="526.19" r="2.27"/><circle class="cls-12" cx="183.54" cy="538.77" r="2.27"/><circle class="cls-12" cx="189.24" cy="521.94" r="2.27"/><circle class="cls-12" cx="191.83" cy="530.21" r="2.27"/><circle class="cls-12" cx="185.81" cy="553.26" r="2.27"/><circle class="cls-12" cx="159.48" cy="562.66" r="2.27"/><circle class="cls-12" cx="113.19" cy="434.46" r="2.15"/></g><g id="magenta_copy_4" data-name="magenta copy 4"><circle class="cls-13" cx="143.82" cy="302.77" r="1.83"/><circle class="cls-13" cx="152.75" cy="298.49" r="1.83"/><circle class="cls-13" cx="158.68" cy="296.66" r="1.83"/><circle class="cls-13" cx="156.42" cy="303.92" r="1.83"/><circle class="cls-13" cx="143.82" cy="311.22" r="1.83"/><circle class="cls-13" cx="156.85" cy="318.13" r="1.83"/><circle class="cls-13" cx="170.95" cy="320.93" r="1.83"/><circle class="cls-13" cx="157.95" cy="329.76" r="1.83"/><circle class="cls-13" cx="173.2" cy="335.65" r="1.83"/><circle class="cls-13" cx="146.75" cy="328.56" r="1.83"/><circle class="cls-13" cx="140.77" cy="324.34" r="1.83"/><circle class="cls-13" cx="126.97" cy="334.78" r="1.83"/><circle class="cls-13" cx="138.46" cy="342.01" r="1.83"/><circle class="cls-13" cx="151.7" cy="341.51" r="1.83"/><circle class="cls-13" cx="159.78" cy="340.74" r="1.83"/><circle class="cls-13" cx="170.95" cy="350.65" r="1.83"/><circle class="cls-13" cx="170.95" cy="369.31" r="1.83"/><circle class="cls-13" cx="175.03" cy="375.3" r="1.83"/><circle class="cls-13" cx="172.46" cy="387.56" r="1.83"/><circle class="cls-13" cx="167.72" cy="404.75" r="1.83"/><circle class="cls-13" cx="166.99" cy="412.14" r="1.83"/><circle class="cls-13" cx="161.61" cy="418.51" r="1.83"/><circle class="cls-13" cx="160.51" cy="437.75" r="1.83"/><circle class="cls-13" cx="165.89" cy="382.45" r="1.83"/><circle class="cls-13" cx="156.85" cy="379.31" r="1.83"/><circle class="cls-13" cx="161.97" cy="395.83" r="1.83"/><circle class="cls-13" cx="141.99" cy="365.04" r="1.83"/><circle class="cls-13" cx="133.5" cy="375.83" r="1.83"/><circle class="cls-13" cx="126.55" cy="371.63" r="1.83"/><circle class="cls-13" cx="136.04" cy="377.47" r="1.83"/><circle class="cls-13" cx="134.8" cy="380.73" r="1.83"/><circle class="cls-13" cx="129.83" cy="387.1" r="1.83"/><circle class="cls-13" cx="126.97" cy="397.12" r="1.83"/><circle class="cls-13" cx="126.09" cy="400.79" r="1.83"/><circle class="cls-13" cx="138.94" cy="402.92" r="1.83"/><circle class="cls-13" cx="128.38" cy="408.77" r="1.83"/><circle class="cls-13" cx="143.09" cy="389.85" r="1.83"/><circle class="cls-13" cx="111.62" cy="395.83" r="1.83"/><circle class="cls-13" cx="112.87" cy="401.09" r="1.83"/><circle class="cls-13" cx="120.18" cy="406.94" r="1.83"/><circle class="cls-13" cx="115.93" cy="413.16" r="1.83"/><circle class="cls-13" cx="114.09" cy="422.17" r="1.83"/><circle class="cls-13" cx="130.64" cy="422.9" r="1.83"/><circle class="cls-13" cx="105.1" cy="444.12" r="1.83"/><circle class="cls-13" cx="107.96" cy="427.51" r="1.83"/><circle class="cls-13" cx="110.38" cy="408.77" r="1.83"/><circle class="cls-13" cx="95.24" cy="397.66" r="1.83"/><circle class="cls-13" cx="107.53" cy="411.33" r="1.83"/><circle class="cls-13" cx="136.04" cy="353.77" r="1.83"/><circle class="cls-13" cx="124.26" cy="346.97" r="1.83"/><circle class="cls-13" cx="126.97" cy="355.09" r="1.83"/><circle class="cls-13" cx="117.03" cy="361.24" r="1.83"/><circle class="cls-13" cx="108.55" cy="363.21" r="1.83"/><circle class="cls-13" cx="33.59" cy="367.97" r="1.83"/><circle class="cls-13" cx="33.14" cy="380.32" r="1.83"/><circle class="cls-13" cx="38.19" cy="399.49" r="1.83"/><circle class="cls-13" cx="114.09" cy="327.74" r="1.83"/><circle class="cls-13" cx="115.2" cy="310.36" r="1.83"/><circle class="cls-13" cx="132.37" cy="303.12" r="1.83"/><circle class="cls-13" cx="141.99" cy="286.14" r="1.83"/><circle class="cls-13" cx="152.35" cy="289.26" r="1.83"/><circle class="cls-13" cx="139.39" cy="277.42" r="1.83"/><circle class="cls-13" cx="126.37" cy="289.93" r="1.83"/><circle class="cls-13" cx="108.19" cy="294.82" r="1.83"/><circle class="cls-13" cx="100.76" cy="277.95" r="1.83"/><circle class="cls-13" cx="107.43" cy="311.22" r="1.83"/><circle class="cls-13" cx="106.72" cy="317.26" r="1.83"/><circle class="cls-13" cx="137.73" cy="435.03" r="3.52"/><circle class="cls-13" cx="187.16" cy="436.59" r="4.28"/><ellipse class="cls-13" cx="158.33" cy="362.07" rx="5.95" ry="9.51" transform="translate(-217.52 240.02) rotate(-48.39)"/><ellipse class="cls-13" cx="114.9" cy="380.32" rx="5.6" ry="8.78" transform="translate(-276 309.28) rotate(-62.89)"/><ellipse class="cls-13" cx="125.77" cy="318.78" rx="6.15" ry="9.79" transform="translate(-207.09 237.31) rotate(-54.72)"/><ellipse class="cls-13" cx="168.52" cy="305.49" rx="6.15" ry="9.79" transform="translate(-178.19 266.6) rotate(-54.72)"/><ellipse class="cls-13" cx="50.12" cy="300.67" rx="3.69" ry="3.44"/><circle class="cls-13" cx="194.98" cy="287.63" r="5.6"/><circle class="cls-13" cx="138.34" cy="216.45" r="5.49"/><circle class="cls-13" cx="161.69" cy="258.42" r="4.5"/><circle class="cls-13" cx="127.4" cy="260.64" r="3.14"/><circle class="cls-13" cx="153.79" cy="62.9" r="2.01"/><circle class="cls-13" cx="158.18" cy="56.83" r="2.01"/><circle class="cls-13" cx="159.72" cy="50.32" r="2.01"/><circle class="cls-13" cx="153.06" cy="42.27" r="2.01"/><circle class="cls-13" cx="147.2" cy="38.54" r="2.01"/><circle class="cls-13" cx="138.72" cy="42.27" r="2.01"/><circle class="cls-13" cx="144.79" cy="55.73" r="2.01"/><circle class="cls-13" cx="137.98" cy="57.75" r="2.01"/><circle class="cls-13" cx="131.98" cy="48.31" r="2.01"/><circle class="cls-13" cx="125.4" cy="66.93" r="2.01"/><circle class="cls-13" cx="146.47" cy="69.23" r="2.01"/><circle class="cls-13" cx="154.16" cy="81.6" r="2.01"/><circle class="cls-13" cx="174.28" cy="78.6" r="3.04"/><circle class="cls-13" cx="130.75" cy="78.17" r="3.92"/><circle class="cls-13" cx="133.52" cy="627.93" r="3.11"/><circle class="cls-13" cx="169.48" cy="626.13" r="5.26"/><circle class="cls-13" cx="207.59" cy="391.68" r="2.3"/><circle class="cls-13" cx="93.99" cy="348.69" r="2.4"/></g><g id="green_copy_6-2" data-name="green copy 6"><circle class="cls-14" cx="105.29" cy="177.68" r="2.28"/><circle class="cls-14" cx="111.54" cy="183.39" r="2.28"/><circle class="cls-14" cx="113.3" cy="197.55" r="2.28"/><circle class="cls-14" cx="114.36" cy="213.7" r="2.28"/><circle class="cls-14" cx="101.22" cy="216.87" r="2.28"/><circle class="cls-14" cx="107.56" cy="232.24" r="2.28"/><circle class="cls-14" cx="115.25" cy="239.59" r="2.28"/><circle class="cls-14" cx="106.17" cy="252.8" r="2.28"/><circle class="cls-14" cx="109.26" cy="260.96" r="2.28"/><circle class="cls-14" cx="119.22" cy="252.8" r="2.28"/><circle class="cls-14" cx="119.91" cy="263.24" r="2.28"/><circle class="cls-14" cx="133.3" cy="265.51" r="2.28"/><circle class="cls-14" cx="140.01" cy="258.93" r="2.28"/><circle class="cls-14" cx="151.43" cy="255.22" r="2.28"/><circle class="cls-14" cx="160.87" cy="266.97" r="2.28"/><circle class="cls-14" cx="150.51" cy="275.9" r="2.28"/><circle class="cls-14" cx="163.94" cy="278.91" r="2.28"/><circle class="cls-14" cx="150.45" cy="242.74" r="2.28"/><circle class="cls-14" cx="132.85" cy="238.43" r="2.28"/><circle class="cls-14" cx="137.74" cy="240.71" r="2.28"/><circle class="cls-14" cx="149.89" cy="234.25" r="2.28"/><circle class="cls-14" cx="154.83" cy="230.11" r="2.28"/><circle class="cls-14" cx="178.1" cy="234.1" r="2.28"/><circle class="cls-14" cx="176.5" cy="244.46" r="2.28"/><circle class="cls-14" cx="179.33" cy="252.8" r="2.28"/><circle class="cls-14" cx="191.55" cy="274.51" r="2.28"/><circle class="cls-14" cx="183.45" cy="288.61" r="2.28"/><circle class="cls-14" cx="193.34" cy="301.62" r="2.28"/><circle class="cls-14" cx="170.95" cy="292.73" r="2.28"/><circle class="cls-14" cx="178.56" cy="314.16" r="2.28"/><circle class="cls-14" cx="183.45" cy="327.09" r="2.28"/><circle class="cls-14" cx="198.89" cy="324.61" r="2.28"/><circle class="cls-14" cx="200.58" cy="328.56" r="2.28"/><circle class="cls-14" cx="200.87" cy="332.94" r="2.28"/><circle class="cls-14" cx="203.65" cy="335.65" r="2.28"/><circle class="cls-14" cx="204.03" cy="341.51" r="2.28"/><circle class="cls-14" cx="197.65" cy="346.97" r="2.28"/><circle class="cls-14" cx="200.58" cy="352.82" r="2.28"/><circle class="cls-14" cx="183.02" cy="342.58" r="2.28"/><circle class="cls-14" cx="178.56" cy="364.53" r="2.28"/><circle class="cls-14" cx="193.34" cy="363.55" r="2.28"/><circle class="cls-14" cx="191.13" cy="374.24" r="2.28"/><circle class="cls-14" cx="202.09" cy="375.83" r="2.28"/><circle class="cls-14" cx="207.07" cy="380.73" r="2.28"/><circle class="cls-14" cx="204.03" cy="385.93" r="2.28"/><circle class="cls-14" cx="195.62" cy="393.61" r="2.28"/><circle class="cls-14" cx="173.23" cy="543.53" r="2.28"/><circle class="cls-14" cx="170.95" cy="553.26" r="2.28"/><circle class="cls-14" cx="170.29" cy="564.23" r="2.28"/><circle class="cls-14" cx="177.61" cy="575.06" r="2.28"/><circle class="cls-14" cx="190.27" cy="573.75" r="2.28"/><circle class="cls-14" cx="179.22" cy="588.31" r="2.28"/><circle class="cls-14" cx="185.37" cy="600.16" r="2.28"/><circle class="cls-14" cx="183.75" cy="609.67" r="2.28"/><circle class="cls-14" cx="176.94" cy="614.06" r="2.28"/><circle class="cls-14" cx="163.48" cy="595.7" r="2.28"/><circle class="cls-14" cx="169.48" cy="634.92" r="2.28"/><circle class="cls-14" cx="171.76" cy="647.79" r="2.28"/><circle class="cls-14" cx="178.85" cy="663" r="2.28"/><circle class="cls-14" cx="129.22" cy="652.88" r="2.28"/><circle class="cls-14" cx="135.29" cy="643.59" r="2.28"/><circle class="cls-14" cx="125.42" cy="629.85" r="2.28"/><circle class="cls-14" cx="125.42" cy="618.88" r="2.28"/><circle class="cls-14" cx="134.35" cy="612.66" r="2.28"/><circle class="cls-14" cx="119.78" cy="605.71" r="2.28"/><circle class="cls-14" cx="113.27" cy="598.68" r="2.28"/><circle class="cls-14" cx="126.37" cy="592.53" r="2.28"/><circle class="cls-14" cx="120.35" cy="576.56" r="2.28"/><circle class="cls-14" cx="119.11" cy="560.81" r="2.28"/><circle class="cls-14" cx="113.38" cy="565.7" r="2.28"/><circle class="cls-14" cx="116.83" cy="546.68" r="2.28"/><circle class="cls-14" cx="110.99" cy="540.09" r="2.28"/><circle class="cls-14" cx="109.02" cy="520.05" r="2.28"/><circle class="cls-14" cx="188.3" cy="386.51" r="2.28"/><circle class="cls-14" cx="199.69" cy="305.75" r="2.28"/><circle class="cls-14" cx="184.51" cy="308.53" r="2.28"/><circle class="cls-14" cx="194.32" cy="316.48" r="2.28"/><circle class="cls-14" cx="182.23" cy="270.12" r="2.28"/><circle class="cls-14" cx="194.66" cy="266.09" r="2.28"/><circle class="cls-14" cx="232.52" cy="260.96" r="2.28"/><circle class="cls-14" cx="230.24" cy="272.24" r="2.28"/><circle class="cls-14" cx="234.41" cy="284.31" r="2.28"/><circle class="cls-14" cx="245.12" cy="277.42" r="2.28"/><circle class="cls-14" cx="252.8" cy="272.24" r="2.28"/><circle class="cls-14" cx="254.55" cy="282.03" r="2.28"/><circle class="cls-14" cx="247.31" cy="288.03" r="2.28"/><circle class="cls-14" cx="240.05" cy="292.73" r="2.28"/><circle class="cls-14" cx="247" cy="298.08" r="2.28"/><circle class="cls-14" cx="255.08" cy="300.94" r="2.28"/><circle class="cls-14" cx="248.48" cy="314.16" r="2.28"/><circle class="cls-14" cx="253.2" cy="325.9" r="2.28"/><circle class="cls-14" cx="265.07" cy="349.24" r="2.28"/><circle class="cls-14" cx="258.48" cy="364.17" r="2.28"/><circle class="cls-14" cx="264.63" cy="375.29" r="2.28"/><circle class="cls-14" cx="261.48" cy="391.68" r="2.28"/><path class="cls-14" d="M251.15,262.76c.48,1.16,1.93,2.5.76,3a2.28,2.28,0,0,1-1.74-4.21C251.33,261.05,250.67,261.6,251.15,262.76Z"/><circle class="cls-14" cx="229.66" cy="245.65" r="2.28"/><circle class="cls-14" cx="226.48" cy="253.4" r="2.28"/><circle class="cls-14" cx="168.12" cy="247.29" r="2.28"/><circle class="cls-14" cx="170.51" cy="222.9" r="2.28"/><circle class="cls-14" cx="169.09" cy="210.53" r="2.28"/><circle class="cls-14" cx="180.38" cy="209.89" r="2.28"/><circle class="cls-14" cx="189.28" cy="225.73" r="2.28"/><circle class="cls-14" cx="162.27" cy="199.33" r="2.28"/><circle class="cls-14" cx="162.27" cy="188.57" r="2.28"/><circle class="cls-14" cx="165.01" cy="180.67" r="2.28"/><circle class="cls-14" cx="119.91" cy="226.23" r="2.28"/><circle class="cls-14" cx="128.05" cy="245.65" r="2.28"/><circle class="cls-14" cx="110.11" cy="270.81" r="2.28"/><circle class="cls-14" cx="108.19" cy="276.41" r="2.28"/><circle class="cls-14" cx="104.35" cy="287.4" r="2.28"/><circle class="cls-14" cx="131.03" cy="275.55" r="2.28"/><circle class="cls-14" cx="122.68" cy="283.12" r="2.28"/><circle class="cls-14" cx="107.56" cy="201.61" r="2.28"/><circle class="cls-14" cx="97.58" cy="187.94" r="2.28"/><circle class="cls-14" cx="104.05" cy="158.75" r="2.28"/><circle class="cls-14" cx="96.04" cy="163.3" r="2.28"/><circle class="cls-14" cx="84.73" cy="163.3" r="2.28"/><circle class="cls-14" cx="86.16" cy="176.91" r="2.28"/><circle class="cls-14" cx="86.16" cy="194.25" r="2.28"/><circle class="cls-14" cx="88.44" cy="205.34" r="2.28"/><circle class="cls-14" cx="81.08" cy="212.8" r="2.28"/><circle class="cls-14" cx="78.81" cy="223.45" r="2.28"/><circle class="cls-14" cx="73.7" cy="230.61" r="2.28"/><circle class="cls-14" cx="68.11" cy="218.1" r="2.28"/><circle class="cls-14" cx="82.46" cy="234.1" r="2.28"/><circle class="cls-14" cx="75.98" cy="249.57" r="2.28"/><circle class="cls-14" cx="70.38" cy="245.02" r="2.28"/><circle class="cls-14" cx="65.23" cy="255.22" r="2.28"/><circle class="cls-14" cx="68.11" cy="263.24" r="2.28"/><circle class="cls-14" cx="70.85" cy="271.69" r="2.28"/><circle class="cls-14" cx="67.5" cy="284.31" r="2.28"/><circle class="cls-14" cx="48.71" cy="288.81" r="2.28"/><circle class="cls-14" cx="40.44" cy="307.32" r="2.28"/><circle class="cls-14" cx="46.43" cy="317.31" r="2.28"/><circle class="cls-14" cx="40.66" cy="331.32" r="2.28"/><circle class="cls-14" cx="38.47" cy="337.58" r="2.28"/><circle class="cls-14" cx="33.59" cy="350.65" r="2.28"/><circle class="cls-14" cx="31.3" cy="357.3" r="2.28"/><circle class="cls-14" cx="54.44" cy="250.05" r="2.28"/><circle class="cls-14" cx="46.43" cy="265.51" r="2.28"/><circle class="cls-14" cx="86.16" cy="223.45" r="2.28"/></g></g><g id="body_1_copy_4-2" data-name="body 1 copy 4" class="cls-15"><path class="cls-16" d="M262.55,310.4c-.63-4.28-4-32.7-6.48-41.48s-20.58-44.62-22-58.91c-.28-2.81-2.24-16.39-2.31-29.34A141,141,0,0,0,230.13,158c-2.56-13.64-19.61-23.16-26.59-23.74-3.85-.32-10.65-6.07-13.54-7.46s-15.15-5-17.12-6.41-4-4.39-3.95-6.25,0-10.8,1.75-15.52a53.48,53.48,0,0,0,2.42-9.65s.44,1.2,2.41,0,4-9.66,4-9.66,1.32-10.21-1.53-10.32c-1.23,0-1.77,0-2,0,0-.9,0-15.2-.88-18.39s-6.35-18.82-25.49-18.33c-19.13-.49-24.61,15-25.48,18.33s-.88,17.49-.88,18.39c-.22,0-.75,0-2,0-2.85.11-1.53,10.32-1.53,10.32s2,8.45,4,9.66,2.41,0,2.41,0a53.48,53.48,0,0,0,2.42,9.65c1.75,4.72,1.68,13.71,1.75,15.52s-2,4.83-4,6.25-14.12,5-17.12,6.41-9.7,7.14-13.54,7.46c-7,.58-24,10.1-26.59,23.74-1,5.49-1.6,14-1.65,22.72-.07,13-2,26.53-2.31,29.34-1.4,14.29-19.51,50.13-22,58.91s-5.85,37.2-6.48,41.48-8,42.7-7.35,55.32c.23,4.88,2.19,24.15,5.16,32.27,1,2.64,2.19,5,5.21,4.5s2.14-5,2.14-5l-1.26-3.3s2.13.34,2.8-.27.43-3.18.43-3.18-2.25-5.44-3.62-9.83-.22-11.36,1-10.37,5.16,6.8,6.59,7.68a3,3,0,0,0,3.73-.11c.34-.4.37-2.78-1.66-7.67-3.06-7.36-5.7-10.85-6.3-15.6-.67-5.28,1.76-22.55,8.89-36.1,2.77-5.27,20.31-32.88,22.83-42.7s2.85-19.43,3.73-23.82,11.75-29,13.12-32.92,4.61-20.42,4.61-20.42,4.5,27.93,5,35.56.05,25.8-.06,30.84-5.27,16-5.43,21.85.33,19.59.44,22.39-10.22,41-8.56,80.56c2,47.3,17.34,81.87,17.34,107.34,0,10-2.69,44.56-2,59.71s12.84,69.31,12.84,73.92-1.73,15.13-1.86,17.17-.28,5.38-.44,6.81-1,1.64-1.7,3.18-.88,3.3-1.7,4.45-7.58,6.8-9.11,12,6.58,3.46,6.58,3.46,9.77-.28,12.18-.39,5.93.12,10.43.39,8.23.27,10.65-3.35c2.18-3.28-.22-16.77-.69-18.32a45,45,0,0,0,.69-6.49c0-2.36-3-11.79-3.46-15.14s-.5-29.57.27-36.17,6.21-32.81,6.15-52-3.24-17.56-4.06-28.92,1.43-18.83,3.62-34.3,2.63-98.18,2.63-98.18l3.1-.69,3.11.69s.43,82.7,2.63,98.18,4.44,22.94,3.62,34.3-4,9.71-4.06,28.92,5.36,45.43,6.14,52,.72,32.82.28,36.17-3.46,12.78-3.46,15.14a45,45,0,0,0,.69,6.49c-.47,1.55-2.88,15-.69,18.32,2.42,3.62,6.15,3.62,10.65,3.35s8-.5,10.42-.39,12.19.39,12.19.39,8.12,1.7,6.58-3.46-8.28-10.82-9.11-12-1-2.91-1.7-4.45-1.53-1.76-1.7-3.18-.31-4.76-.44-6.81-1.86-12.56-1.86-17.17,12.12-58.78,12.84-73.92-2-49.72-2-59.71c0-25.47,15.37-60,17.34-107.34,1.66-39.6-8.67-77.77-8.56-80.56s.61-16.58.44-22.39-5.32-16.8-5.43-21.85-.61-23.21-.06-30.84,5-35.56,5-35.56,3.24,16.46,4.61,20.42,12.24,28.53,13.12,32.92,1.16,14,3.73,23.82c2.65,10.12,20.08,37.48,22.83,42.7,7.14,13.55,9.56,30.82,8.89,36.1-.61,4.75-3.24,8.24-6.3,15.6-2,4.89-2,7.27-1.66,7.67a3,3,0,0,0,3.73.11c1.43-.88,5.38-6.69,6.59-7.68s2.36,6,1,10.37-3.63,9.83-3.63,9.83-.32,2.46.44,3.18,2.8.27,2.8.27l-1.26,3.3s-.88,4.5,2.14,5,4.25-1.86,5.21-4.5c3-8.12,4.93-27.39,5.16-32.27C270.51,353.1,263.18,314.69,262.55,310.4Z"/></g></g></svg>