<svg xmlns="http://www.w3.org/2000/svg" xmlns:xlink="http://www.w3.org/1999/xlink" width="500" zoomAndPan="magnify" viewBox="0 0 375 374.999991" height="500" preserveAspectRatio="xMidYMid meet" version="1.0"><defs><g/><clipPath id="id1"><path d="M 124.464844 88.15625 L 245.964844 88.15625 L 245.964844 159.40625 L 124.464844 159.40625 Z M 124.464844 88.15625 " clip-rule="nonzero"/></clipPath></defs><rect x="-37.5" width="450" fill="#ffffff" y="-37.499999" height="449.999989" fill-opacity="1"/><rect x="-37.5" width="450" fill="#000000" y="-37.499999" height="449.999989" fill-opacity="1"/><rect x="-37.5" width="450" fill="#ffffff" y="-37.499999" height="449.999989" fill-opacity="1"/><rect x="-37.5" width="450" fill="#000000" y="-37.499999" height="449.999989" fill-opacity="1"/><g clip-path="url(#id1)"><path fill="#ffffff" d="M 209.09375 107.066406 L 161.46875 107.066406 C 160.699219 107.066406 159.933594 107.105469 159.167969 107.179688 C 158.402344 107.257812 157.640625 107.371094 156.886719 107.519531 C 156.132812 107.667969 155.386719 107.855469 154.652344 108.078125 C 153.917969 108.300781 153.195312 108.558594 152.484375 108.851562 C 151.773438 109.144531 151.078125 109.472656 150.398438 109.835938 C 149.722656 110.195312 149.0625 110.589844 148.425781 111.015625 C 147.785156 111.441406 147.167969 111.894531 146.574219 112.382812 C 145.980469 112.867188 145.410156 113.382812 144.867188 113.921875 C 144.324219 114.464844 143.808594 115.03125 143.320312 115.625 C 142.832031 116.214844 142.375 116.832031 141.945312 117.46875 C 141.519531 118.105469 141.125 118.761719 140.761719 119.433594 C 140.398438 120.109375 140.070312 120.800781 139.777344 121.507812 C 139.484375 122.21875 139.226562 122.9375 139 123.667969 C 138.777344 124.402344 138.59375 125.144531 138.441406 125.894531 C 138.292969 126.648438 138.179688 127.402344 138.105469 128.164062 C 138.027344 128.925781 137.992188 129.691406 137.992188 130.457031 C 137.992188 131.222656 138.027344 131.984375 138.105469 132.75 C 138.179688 133.511719 138.292969 134.265625 138.441406 135.019531 C 138.59375 135.769531 138.777344 136.511719 139 137.242188 C 139.226562 137.976562 139.484375 138.695312 139.777344 139.402344 C 140.070312 140.109375 140.398438 140.800781 140.761719 141.476562 C 141.125 142.152344 141.519531 142.808594 141.945312 143.445312 C 142.375 144.082031 142.832031 144.695312 143.320312 145.289062 C 143.808594 145.882812 144.324219 146.449219 144.867188 146.988281 C 145.410156 147.53125 145.980469 148.046875 146.574219 148.53125 C 147.167969 149.015625 147.785156 149.472656 148.425781 149.898438 C 149.0625 150.324219 149.722656 150.71875 150.398438 151.078125 C 151.078125 151.441406 151.773438 151.769531 152.484375 152.0625 C 153.195312 152.355469 153.917969 152.613281 154.652344 152.835938 C 155.386719 153.058594 156.132812 153.242188 156.886719 153.394531 C 157.640625 153.542969 158.402344 153.65625 159.167969 153.730469 C 159.933594 153.808594 160.699219 153.84375 161.46875 153.847656 L 178.140625 153.847656 C 178.378906 153.847656 178.601562 153.789062 178.808594 153.671875 L 185.28125 150.011719 L 191.753906 153.671875 C 191.960938 153.789062 192.183594 153.847656 192.421875 153.847656 L 209.09375 153.847656 C 209.863281 153.847656 210.628906 153.808594 211.394531 153.734375 C 212.160156 153.65625 212.921875 153.542969 213.675781 153.394531 C 214.429688 153.246094 215.175781 153.058594 215.910156 152.835938 C 216.648438 152.613281 217.371094 152.355469 218.082031 152.0625 C 218.792969 151.769531 219.484375 151.441406 220.164062 151.082031 C 220.84375 150.71875 221.5 150.324219 222.140625 149.898438 C 222.78125 149.476562 223.398438 149.019531 223.992188 148.53125 C 224.585938 148.046875 225.15625 147.53125 225.699219 146.992188 C 226.242188 146.449219 226.757812 145.882812 227.246094 145.289062 C 227.734375 144.699219 228.191406 144.085938 228.621094 143.449219 C 229.046875 142.8125 229.441406 142.15625 229.804688 141.480469 C 230.167969 140.804688 230.496094 140.113281 230.789062 139.40625 C 231.082031 138.695312 231.34375 137.976562 231.566406 137.246094 C 231.789062 136.511719 231.976562 135.769531 232.125 135.019531 C 232.273438 134.265625 232.386719 133.511719 232.464844 132.75 C 232.539062 131.988281 232.578125 131.222656 232.578125 130.457031 C 232.578125 129.691406 232.539062 128.925781 232.464844 128.164062 C 232.386719 127.402344 232.273438 126.644531 232.125 125.894531 C 231.976562 125.144531 231.789062 124.402344 231.566406 123.667969 C 231.34375 122.9375 231.082031 122.214844 230.789062 121.507812 C 230.496094 120.800781 230.167969 120.109375 229.804688 119.433594 C 229.441406 118.757812 229.046875 118.101562 228.621094 117.464844 C 228.191406 116.828125 227.734375 116.214844 227.246094 115.621094 C 226.757812 115.03125 226.242188 114.464844 225.699219 113.921875 C 225.15625 113.378906 224.585938 112.867188 223.992188 112.378906 C 223.398438 111.894531 222.78125 111.4375 222.140625 111.011719 C 221.5 110.585938 220.84375 110.195312 220.164062 109.832031 C 219.484375 109.472656 218.792969 109.144531 218.082031 108.851562 C 217.371094 108.558594 216.648438 108.300781 215.910156 108.078125 C 215.175781 107.855469 214.429688 107.667969 213.675781 107.519531 C 212.921875 107.367188 212.160156 107.257812 211.394531 107.179688 C 210.628906 107.105469 209.863281 107.066406 209.09375 107.066406 Z M 209.09375 151.15625 L 192.777344 151.15625 L 185.949219 147.292969 C 185.503906 147.042969 185.058594 147.042969 184.613281 147.292969 L 177.785156 151.160156 L 161.46875 151.160156 C 160.789062 151.160156 160.109375 151.128906 159.433594 151.0625 C 158.753906 150.992188 158.082031 150.894531 157.414062 150.761719 C 156.746094 150.628906 156.089844 150.464844 155.4375 150.265625 C 154.785156 150.070312 154.144531 149.84375 153.515625 149.582031 C 152.886719 149.324219 152.273438 149.03125 151.671875 148.714844 C 151.074219 148.394531 150.492188 148.046875 149.925781 147.667969 C 149.359375 147.292969 148.8125 146.886719 148.289062 146.457031 C 147.761719 146.027344 147.257812 145.574219 146.777344 145.09375 C 146.296875 144.613281 145.839844 144.113281 145.40625 143.589844 C 144.976562 143.066406 144.570312 142.523438 144.191406 141.957031 C 143.816406 141.394531 143.464844 140.8125 143.144531 140.214844 C 142.824219 139.617188 142.535156 139.007812 142.273438 138.382812 C 142.011719 137.753906 141.785156 137.117188 141.585938 136.46875 C 141.390625 135.820312 141.222656 135.164062 141.089844 134.5 C 140.957031 133.835938 140.859375 133.164062 140.792969 132.492188 C 140.726562 131.816406 140.691406 131.140625 140.691406 130.464844 C 140.691406 129.785156 140.726562 129.109375 140.792969 128.433594 C 140.859375 127.761719 140.957031 127.089844 141.089844 126.425781 C 141.222656 125.761719 141.390625 125.105469 141.585938 124.457031 C 141.785156 123.808594 142.011719 123.171875 142.273438 122.546875 C 142.535156 121.917969 142.824219 121.308594 143.144531 120.710938 C 143.464844 120.113281 143.816406 119.53125 144.191406 118.96875 C 144.570312 118.40625 144.976562 117.859375 145.40625 117.335938 C 145.839844 116.8125 146.296875 116.3125 146.777344 115.832031 C 147.257812 115.351562 147.761719 114.898438 148.289062 114.46875 C 148.8125 114.039062 149.359375 113.636719 149.925781 113.257812 C 150.492188 112.882812 151.074219 112.53125 151.671875 112.214844 C 152.273438 111.894531 152.886719 111.605469 153.515625 111.34375 C 154.144531 111.085938 154.785156 110.855469 155.4375 110.660156 C 156.089844 110.460938 156.746094 110.296875 157.414062 110.164062 C 158.082031 110.03125 158.753906 109.933594 159.433594 109.867188 C 160.109375 109.800781 160.789062 109.765625 161.46875 109.765625 L 209.09375 109.765625 C 209.773438 109.765625 210.453125 109.800781 211.128906 109.867188 C 211.808594 109.933594 212.480469 110.03125 213.148438 110.164062 C 213.816406 110.296875 214.472656 110.460938 215.125 110.660156 C 215.777344 110.855469 216.417969 111.085938 217.046875 111.34375 C 217.675781 111.605469 218.289062 111.894531 218.890625 112.214844 C 219.488281 112.53125 220.070312 112.882812 220.636719 113.257812 C 221.203125 113.636719 221.75 114.039062 222.273438 114.46875 C 222.800781 114.898438 223.304688 115.351562 223.785156 115.832031 C 224.265625 116.3125 224.722656 116.8125 225.15625 117.335938 C 225.585938 117.859375 225.992188 118.40625 226.371094 118.96875 C 226.746094 119.53125 227.097656 120.113281 227.417969 120.710938 C 227.738281 121.308594 228.027344 121.917969 228.289062 122.546875 C 228.550781 123.171875 228.777344 123.808594 228.976562 124.457031 C 229.171875 125.105469 229.339844 125.761719 229.472656 126.425781 C 229.605469 127.089844 229.703125 127.761719 229.769531 128.433594 C 229.835938 129.109375 229.871094 129.785156 229.871094 130.464844 C 229.871094 131.140625 229.835938 131.816406 229.769531 132.492188 C 229.703125 133.164062 229.605469 133.835938 229.472656 134.5 C 229.339844 135.164062 229.171875 135.820312 228.976562 136.46875 C 228.777344 137.117188 228.550781 137.753906 228.289062 138.382812 C 228.027344 139.007812 227.738281 139.617188 227.417969 140.214844 C 227.097656 140.8125 226.746094 141.394531 226.371094 141.957031 C 225.992188 142.523438 225.585938 143.066406 225.15625 143.589844 C 224.722656 144.113281 224.265625 144.613281 223.785156 145.09375 C 223.304688 145.574219 222.800781 146.027344 222.273438 146.457031 C 221.75 146.886719 221.203125 147.292969 220.636719 147.667969 C 220.070312 148.046875 219.488281 148.394531 218.890625 148.714844 C 218.289062 149.03125 217.675781 149.324219 217.046875 149.582031 C 216.417969 149.84375 215.777344 150.070312 215.125 150.265625 C 214.472656 150.464844 213.816406 150.628906 213.148438 150.761719 C 212.480469 150.894531 211.808594 150.992188 211.128906 151.0625 C 210.453125 151.128906 209.773438 151.160156 209.09375 151.160156 Z M 240.355469 118.933594 L 238.417969 118.933594 L 238.417969 111.4375 C 238.417969 110.789062 238.355469 110.148438 238.226562 109.515625 C 238.101562 108.878906 237.914062 108.261719 237.664062 107.667969 C 237.414062 107.070312 237.109375 106.5 236.75 105.964844 C 236.386719 105.425781 235.976562 104.925781 235.519531 104.46875 C 235.058594 104.011719 234.558594 103.605469 234.019531 103.246094 C 233.476562 102.886719 232.90625 102.582031 232.308594 102.332031 C 231.707031 102.085938 231.089844 101.898438 230.453125 101.773438 C 229.8125 101.644531 229.171875 101.582031 228.519531 101.582031 L 206.644531 101.582031 L 206.644531 97.320312 C 206.644531 96.734375 206.585938 96.152344 206.46875 95.574219 C 206.355469 94.996094 206.183594 94.4375 205.957031 93.894531 C 205.730469 93.351562 205.453125 92.835938 205.125 92.347656 C 204.796875 91.859375 204.425781 91.40625 204.007812 90.992188 C 203.589844 90.578125 203.132812 90.207031 202.644531 89.878906 C 202.152344 89.550781 201.636719 89.277344 201.089844 89.050781 C 200.542969 88.824219 199.980469 88.65625 199.402344 88.539062 C 198.824219 88.425781 198.238281 88.367188 197.648438 88.367188 L 172.917969 88.367188 C 172.324219 88.367188 171.742188 88.425781 171.164062 88.539062 C 170.582031 88.65625 170.019531 88.824219 169.476562 89.050781 C 168.929688 89.277344 168.414062 89.550781 167.921875 89.878906 C 167.429688 90.207031 166.976562 90.578125 166.558594 90.992188 C 166.140625 91.40625 165.769531 91.859375 165.441406 92.347656 C 165.113281 92.835938 164.835938 93.351562 164.609375 93.894531 C 164.382812 94.4375 164.210938 94.996094 164.09375 95.574219 C 163.980469 96.152344 163.921875 96.734375 163.921875 97.320312 L 163.921875 101.582031 L 142.042969 101.582031 C 141.390625 101.582031 140.746094 101.644531 140.109375 101.773438 C 139.472656 101.898438 138.855469 102.085938 138.253906 102.332031 C 137.65625 102.582031 137.085938 102.886719 136.542969 103.246094 C 136.003906 103.605469 135.503906 104.011719 135.042969 104.46875 C 134.585938 104.925781 134.175781 105.425781 133.8125 105.964844 C 133.453125 106.5 133.148438 107.070312 132.898438 107.667969 C 132.648438 108.261719 132.460938 108.878906 132.335938 109.515625 C 132.207031 110.148438 132.144531 110.789062 132.144531 111.4375 L 132.144531 118.933594 L 130.207031 118.933594 C 129.832031 118.9375 129.460938 118.972656 129.09375 119.046875 C 128.726562 119.117188 128.371094 119.226562 128.023438 119.371094 C 127.679688 119.511719 127.347656 119.6875 127.039062 119.894531 C 126.726562 120.101562 126.4375 120.335938 126.171875 120.601562 C 125.90625 120.863281 125.671875 121.152344 125.464844 121.460938 C 125.253906 121.773438 125.078125 122.097656 124.933594 122.445312 C 124.792969 122.789062 124.683594 123.144531 124.609375 123.507812 C 124.535156 123.875 124.5 124.246094 124.5 124.617188 L 124.5 136.292969 C 124.5 136.667969 124.535156 137.035156 124.609375 137.402344 C 124.683594 137.769531 124.792969 138.125 124.933594 138.46875 C 125.078125 138.8125 125.253906 139.140625 125.464844 139.449219 C 125.671875 139.761719 125.90625 140.046875 126.171875 140.3125 C 126.4375 140.574219 126.726562 140.8125 127.039062 141.019531 C 127.347656 141.226562 127.679688 141.402344 128.023438 141.542969 C 128.371094 141.6875 128.726562 141.792969 129.09375 141.867188 C 129.460938 141.941406 129.832031 141.976562 130.207031 141.976562 L 132.144531 141.976562 L 132.144531 149.476562 C 132.144531 150.125 132.207031 150.765625 132.335938 151.398438 C 132.460938 152.035156 132.648438 152.648438 132.898438 153.246094 C 133.148438 153.84375 133.453125 154.410156 133.8125 154.949219 C 134.175781 155.488281 134.585938 155.984375 135.046875 156.441406 C 135.503906 156.898438 136.003906 157.308594 136.542969 157.667969 C 137.085938 158.027344 137.65625 158.332031 138.253906 158.578125 C 138.855469 158.828125 139.472656 159.015625 140.109375 159.140625 C 140.75 159.265625 141.390625 159.332031 142.042969 159.332031 L 178.140625 159.332031 C 178.378906 159.332031 178.601562 159.273438 178.808594 159.15625 L 181.269531 157.765625 C 181.882812 157.421875 182.527344 157.160156 183.207031 156.980469 C 183.886719 156.804688 184.578125 156.714844 185.28125 156.714844 C 185.984375 156.714844 186.675781 156.804688 187.355469 156.980469 C 188.035156 157.160156 188.679688 157.421875 189.292969 157.765625 L 191.753906 159.15625 C 191.960938 159.273438 192.183594 159.332031 192.421875 159.332031 L 228.519531 159.332031 C 229.171875 159.332031 229.8125 159.265625 230.453125 159.140625 C 231.089844 159.015625 231.707031 158.828125 232.308594 158.578125 C 232.90625 158.332031 233.476562 158.027344 234.019531 157.667969 C 234.558594 157.308594 235.058594 156.898438 235.515625 156.441406 C 235.976562 155.984375 236.386719 155.488281 236.746094 154.949219 C 237.109375 154.410156 237.414062 153.84375 237.664062 153.246094 C 237.914062 152.648438 238.101562 152.035156 238.226562 151.398438 C 238.355469 150.765625 238.417969 150.125 238.417969 149.476562 L 238.417969 141.976562 L 240.355469 141.976562 C 240.730469 141.976562 241.101562 141.941406 241.46875 141.867188 C 241.835938 141.792969 242.191406 141.6875 242.539062 141.542969 C 242.882812 141.402344 243.214844 141.226562 243.523438 141.019531 C 243.835938 140.8125 244.125 140.574219 244.390625 140.3125 C 244.65625 140.046875 244.890625 139.761719 245.097656 139.449219 C 245.308594 139.140625 245.484375 138.8125 245.628906 138.46875 C 245.769531 138.125 245.878906 137.769531 245.953125 137.402344 C 246.027344 137.035156 246.0625 136.667969 246.0625 136.292969 L 246.0625 124.617188 C 246.0625 124.246094 246.027344 123.875 245.953125 123.507812 C 245.878906 123.144531 245.769531 122.789062 245.628906 122.445312 C 245.484375 122.097656 245.308594 121.773438 245.097656 121.460938 C 244.890625 121.152344 244.65625 120.863281 244.390625 120.601562 C 244.125 120.335938 243.835938 120.101562 243.523438 119.894531 C 243.214844 119.6875 242.882812 119.511719 242.539062 119.371094 C 242.191406 119.226562 241.835938 119.117188 241.46875 119.046875 C 241.101562 118.972656 240.730469 118.9375 240.355469 118.933594 Z M 166.621094 97.320312 C 166.621094 96.910156 166.664062 96.503906 166.742188 96.097656 C 166.824219 95.695312 166.945312 95.304688 167.101562 94.925781 C 167.261719 94.542969 167.453125 94.183594 167.683594 93.84375 C 167.914062 93.5 168.175781 93.183594 168.464844 92.894531 C 168.757812 92.601562 169.074219 92.34375 169.417969 92.113281 C 169.761719 91.886719 170.125 91.691406 170.507812 91.535156 C 170.886719 91.378906 171.28125 91.257812 171.6875 91.179688 C 172.089844 91.097656 172.5 91.058594 172.914062 91.058594 L 197.644531 91.058594 C 198.058594 91.058594 198.46875 91.097656 198.875 91.179688 C 199.277344 91.257812 199.671875 91.378906 200.054688 91.535156 C 200.433594 91.691406 200.796875 91.886719 201.140625 92.113281 C 201.484375 92.34375 201.800781 92.601562 202.09375 92.894531 C 202.386719 93.183594 202.644531 93.5 202.875 93.84375 C 203.105469 94.183594 203.300781 94.542969 203.457031 94.925781 C 203.617188 95.304688 203.734375 95.695312 203.816406 96.097656 C 203.898438 96.503906 203.9375 96.910156 203.9375 97.320312 L 203.9375 101.582031 L 166.621094 101.582031 Z M 130.207031 139.285156 C 129.808594 139.285156 129.425781 139.210938 129.058594 139.058594 C 128.691406 138.90625 128.363281 138.691406 128.082031 138.410156 C 127.800781 138.128906 127.582031 137.804688 127.429688 137.4375 C 127.277344 137.074219 127.203125 136.691406 127.203125 136.292969 L 127.203125 124.617188 C 127.203125 124.21875 127.277344 123.839844 127.429688 123.472656 C 127.582031 123.105469 127.800781 122.78125 128.082031 122.503906 C 128.363281 122.222656 128.691406 122.007812 129.058594 121.855469 C 129.425781 121.703125 129.808594 121.625 130.207031 121.625 L 132.144531 121.625 L 132.144531 139.285156 Z M 235.714844 149.476562 C 235.714844 149.949219 235.667969 150.414062 235.578125 150.875 C 235.484375 151.335938 235.347656 151.78125 235.167969 152.21875 C 234.984375 152.652344 234.765625 153.0625 234.5 153.457031 C 234.238281 153.847656 233.941406 154.207031 233.605469 154.539062 C 233.273438 154.871094 232.910156 155.167969 232.515625 155.429688 C 232.125 155.691406 231.710938 155.914062 231.273438 156.09375 C 230.835938 156.273438 230.386719 156.410156 229.925781 156.5 C 229.460938 156.59375 228.992188 156.640625 228.519531 156.640625 L 192.777344 156.640625 L 190.625 155.429688 C 189.8125 154.972656 188.949219 154.625 188.042969 154.386719 C 187.140625 154.152344 186.21875 154.03125 185.28125 154.03125 C 184.34375 154.03125 183.421875 154.152344 182.519531 154.386719 C 181.613281 154.625 180.75 154.972656 179.9375 155.429688 L 177.785156 156.640625 L 142.042969 156.640625 C 141.570312 156.640625 141.101562 156.59375 140.636719 156.5 C 140.175781 156.410156 139.726562 156.273438 139.289062 156.09375 C 138.851562 155.914062 138.4375 155.691406 138.046875 155.429688 C 137.652344 155.167969 137.289062 154.871094 136.957031 154.539062 C 136.621094 154.207031 136.324219 153.847656 136.0625 153.457031 C 135.796875 153.0625 135.578125 152.652344 135.394531 152.21875 C 135.214844 151.78125 135.078125 151.335938 134.984375 150.875 C 134.894531 150.414062 134.847656 149.949219 134.847656 149.476562 L 134.847656 111.4375 C 134.847656 110.964844 134.894531 110.5 134.984375 110.039062 C 135.078125 109.578125 135.214844 109.128906 135.394531 108.695312 C 135.578125 108.261719 135.796875 107.847656 136.058594 107.457031 C 136.324219 107.066406 136.621094 106.703125 136.957031 106.371094 C 137.289062 106.039062 137.652344 105.742188 138.046875 105.480469 C 138.4375 105.21875 138.851562 105 139.289062 104.820312 C 139.726562 104.636719 140.175781 104.503906 140.636719 104.410156 C 141.101562 104.316406 141.570312 104.273438 142.042969 104.269531 L 228.519531 104.269531 C 228.992188 104.273438 229.460938 104.316406 229.925781 104.410156 C 230.386719 104.503906 230.835938 104.636719 231.273438 104.820312 C 231.710938 105 232.125 105.21875 232.515625 105.480469 C 232.910156 105.742188 233.273438 106.039062 233.605469 106.371094 C 233.941406 106.703125 234.238281 107.066406 234.5 107.457031 C 234.765625 107.847656 234.984375 108.261719 235.167969 108.695312 C 235.347656 109.128906 235.484375 109.578125 235.578125 110.039062 C 235.667969 110.5 235.714844 110.964844 235.714844 111.4375 Z M 243.359375 136.292969 C 243.359375 136.6875 243.285156 137.070312 243.132812 137.4375 C 242.976562 137.804688 242.761719 138.125 242.480469 138.40625 C 242.199219 138.6875 241.871094 138.902344 241.503906 139.054688 C 241.136719 139.207031 240.753906 139.285156 240.355469 139.285156 L 238.417969 139.285156 L 238.417969 121.625 L 240.355469 121.625 C 240.753906 121.625 241.136719 121.703125 241.503906 121.855469 C 241.871094 122.007812 242.199219 122.222656 242.480469 122.503906 C 242.761719 122.78125 242.976562 123.105469 243.132812 123.472656 C 243.285156 123.839844 243.359375 124.21875 243.359375 124.617188 Z M 243.359375 136.292969 " fill-opacity="1" fill-rule="nonzero"/></g><path fill="#ffffff" d="M 165.382812 206.785156 C 165.476562 205.847656 165.367188 204.894531 165.058594 204 C 164.753906 203.105469 164.261719 202.285156 163.609375 201.597656 C 162.960938 200.910156 162.171875 200.371094 161.296875 200.015625 C 160.417969 199.660156 159.476562 199.496094 158.53125 199.535156 C 156.457031 199.578125 154.457031 200.300781 152.832031 201.585938 C 151.519531 202.5625 150.300781 203.648438 149.179688 204.835938 C 144.597656 209.421875 140.476562 214.445312 136.882812 219.835938 C 132.464844 226.535156 128.550781 233.554688 125.179688 240.835938 C 121.050781 249.753906 118.285156 259.246094 116.980469 268.988281 C 114.679688 285.585938 115.832031 295.085938 120.832031 297.535156 C 126.980469 300.738281 150.832031 298.585938 162.230469 291.136719 C 163.515625 290.28125 164.46875 289.011719 164.929688 287.535156 C 165.246094 286.394531 165.429688 285.21875 165.480469 284.035156 C 165.480469 284.035156 165.480469 260.535156 165.480469 242.488281 C 165.480469 224.4375 165.382812 207.488281 165.382812 206.785156 Z M 165.382812 206.785156 " fill-opacity="1" fill-rule="nonzero"/><path fill="#ffffff" d="M 206.332031 206.785156 C 206.386719 205.320312 206.816406 203.890625 207.582031 202.636719 C 208.136719 201.652344 208.953125 200.839844 209.941406 200.292969 C 210.929688 199.746094 212.050781 199.484375 213.179688 199.535156 C 215.253906 199.578125 217.253906 200.300781 218.878906 201.585938 C 220.195312 202.59375 221.414062 203.714844 222.53125 204.9375 C 227.113281 209.519531 231.234375 214.542969 234.832031 219.9375 C 239.242188 226.601562 243.15625 233.589844 246.53125 240.835938 C 250.640625 249.765625 253.402344 259.25 254.730469 268.988281 C 257.03125 285.585938 255.730469 295.085938 250.980469 297.535156 C 244.832031 300.738281 220.730469 298.585938 209.582031 291.136719 C 208.296875 290.28125 207.34375 289.011719 206.878906 287.535156 C 206.566406 286.394531 206.382812 285.21875 206.332031 284.035156 Z M 206.332031 206.785156 " fill-opacity="1" fill-rule="nonzero"/><path fill="#ffffff" d="M 200.832031 222.035156 C 197.9375 221.074219 195.417969 219.234375 193.621094 216.769531 C 191.828125 214.300781 190.851562 211.335938 190.832031 208.285156 L 190.832031 185.1875 L 180.832031 185.1875 L 180.832031 208.285156 C 180.820312 211.34375 179.847656 214.320312 178.054688 216.796875 C 176.257812 219.273438 173.734375 221.125 170.832031 222.085938 L 170.832031 230.386719 L 200.832031 230.386719 Z M 200.832031 222.035156 " fill-opacity="1" fill-rule="nonzero"/><g fill="#ffffff" fill-opacity="1"><g transform="translate(166.196595, 138.794572)"><g><path d="M 13.234375 -19.75 L 19.203125 -19.75 L 12.734375 0 L 6.4375 0 L 0 -19.75 L 6 -19.75 L 8.6875 -9.734375 C 9.25 -7.515625 9.554688 -5.96875 9.609375 -5.09375 C 9.671875 -5.726562 9.796875 -6.515625 9.984375 -7.453125 C 10.171875 -8.398438 10.335938 -9.144531 10.484375 -9.6875 Z M 13.234375 -19.75 "/></g></g></g><g fill="#ffffff" fill-opacity="1"><g transform="translate(185.396988, 138.794572)"><g><path d="M 7.46875 -7.1875 L 7.46875 0 L 2.140625 0 L 2.140625 -19.75 L 8.609375 -19.75 C 13.972656 -19.75 16.65625 -17.804688 16.65625 -13.921875 C 16.65625 -11.628906 15.539062 -9.859375 13.3125 -8.609375 L 19.0625 0 L 13.015625 0 L 8.828125 -7.1875 Z M 7.46875 -11.203125 L 8.46875 -11.203125 C 10.332031 -11.203125 11.265625 -12.023438 11.265625 -13.671875 C 11.265625 -15.035156 10.351562 -15.71875 8.53125 -15.71875 L 7.46875 -15.71875 Z M 7.46875 -11.203125 "/></g></g></g></svg>