
<svg id="organ-logo" data-name="organ-logo" xmlns="http://www.w3.org/2000/svg" viewbox="0 0 30 30" version="1.0"
 width="500.000000pt" height="500.000000pt" viewBox="0 0 500.000000 500.000000"
 preserveAspectRatio="xMidYMid meet">
<g transform="translate(0.000000,500.000000) scale(0.100000,-0.100000)"
fill="#000000" stroke="none">
<path d="M2450 2711 c-5 -11 -10 -76 -10 -146 0 -143 -6 -160 -69 -217 -42
-37 -50 -63 -31 -99 10 -17 23 -19 158 -19 102 0 152 4 160 12 17 17 15 73 -4
88 -13 12 -14 10 -3 -13 6 -14 9 -37 5 -52 l-7 -26 -147 3 -147 3 -3 41 c-3
34 1 42 23 54 14 8 36 30 48 49 19 31 23 54 27 176 l5 140 45 0 45 0 6 -135
c5 -145 12 -171 53 -209 33 -31 34 -19 1 17 -36 38 -45 81 -45 213 0 76 -4
119 -12 127 -20 20 -86 15 -98 -7z"/>
<path d="M2166 2557 c-68 -38 -245 -268 -290 -377 -10 -25 -24 -56 -31 -70
-40 -77 -85 -288 -85 -396 0 -34 7 -84 16 -111 23 -72 48 -83 171 -81 l98 2
-106 5 c-68 4 -112 11 -123 20 -9 7 -23 38 -32 68 -14 47 -14 69 -4 160 25
219 83 374 214 573 58 88 164 197 200 206 38 9 76 -3 86 -29 l9 -22 0 22 c1
17 -8 27 -35 38 -44 18 -40 18 -88 -8z"/>
<path d="M2748 2564 c-16 -9 -30 -28 -36 -47 -5 -17 -8 -220 -8 -449 1 -404 2
-417 22 -445 22 -30 97 -72 129 -72 11 0 -3 10 -32 22 -29 12 -64 32 -78 44
l-25 23 0 440 c0 427 1 441 20 460 35 35 75 26 137 -32 202 -192 353 -532 353
-797 0 -160 -25 -185 -183 -178 -56 3 -118 8 -137 11 -29 5 -27 3 10 -9 63
-21 238 -20 268 1 42 29 52 65 52 183 0 130 -19 226 -73 371 -77 208 -302 497
-381 489 -6 -1 -23 -7 -38 -15z"/>
</g>
</svg>
