<?xml version="1.0" encoding="utf-8"?>
<svg version="1.1" id="Layer_1" xmlns="http://www.w3.org/2000/svg" xmlns:xlink="http://www.w3.org/1999/xlink" x="0px" y="0px"
	 viewBox="0 0 261.4 282.3" style="enable-background:new 0 0 261.4 282.3;" xml:space="preserve">
<style type="text/css">
	.st0{fill:#FFFFFF;}
</style>
<path class="st0" d="M109,166.9c0.1-1.1,0-2.2-0.4-3.3s-0.9-2-1.7-2.9c-0.8-0.8-1.7-1.5-2.8-1.9c-1-0.4-2.2-0.6-3.3-0.6
	c-2.5,0-4.9,0.9-6.8,2.4c-1.6,1.2-3,2.5-4.3,3.9C84.2,170,79.3,176,75,182.4c-5.3,8-9.9,16.4-14,25c-4.9,10.6-8.2,21.9-9.8,33.6
	c-2.7,19.8-1.4,31.1,4.6,34c7.3,3.8,35.8,1.2,49.3-7.6c1.5-1,2.7-2.5,3.2-4.3c0.4-1.4,0.6-2.8,0.7-4.2c0,0,0-28,0-49.5
	C109.1,187.9,109,167.7,109,166.9z"/>
<path class="st0" d="M157.8,166.9c0.1-1.8,0.6-3.4,1.5-4.9c0.7-1.2,1.6-2.1,2.8-2.8c1.2-0.6,2.5-1,3.9-0.9c2.5,0.1,4.9,0.9,6.8,2.4
	c1.6,1.2,3,2.5,4.4,4c5.5,5.5,10.4,11.4,14.7,17.9c5.3,7.9,9.9,16.3,13.9,24.9c4.9,10.6,8.2,21.9,9.8,33.6c2.7,19.8,1.2,31.1-4.5,34
	c-7.3,3.8-36.1,1.2-49.4-7.6c-1.5-1-2.7-2.5-3.2-4.3c-0.4-1.4-0.6-2.8-0.7-4.2L157.8,166.9L157.8,166.9z"/>
<path class="st0" d="M151.2,185.1c-3.4-1.1-6.4-3.3-8.6-6.3s-3.3-6.5-3.3-10.1v-27.5h-11.9v27.5c0,3.6-1.2,7.2-3.3,10.1
	s-5.2,5.2-8.6,6.3v9.9h35.8V185.1z"/>
<image style="overflow:visible;enable-background:new    ;" width="191" height="120" xlink:href="4358CECA4D44402A.png"  transform="matrix(1.3274 0 0 1.3274 6.575 -13)">
</image>
</svg>
