<svg id="organ" data-name="organ" width="72" height="72" viewBox="0 0 72 72" fill="none" xmlns="http://www.w3.org/2000/svg">
<path d="M23.2748 15.7653C23.315 15.3638 23.2683 14.9582 23.138 14.5763C23.0077 14.1943 22.7968 13.8448 22.5197 13.5515C22.2425 13.2581 21.9055 13.0278 21.5316 12.876C21.1576 12.7243 20.7554 12.6547 20.3522 12.672C19.4678 12.6904 18.6137 12.9975 17.9202 13.5467C17.3614 13.9623 16.8402 14.4263 16.3628 14.9333C14.4074 16.889 12.6496 19.0327 11.1148 21.3333C9.22995 24.1915 7.5613 27.1865 6.12284 30.2933C4.36032 34.0986 3.18087 38.1475 2.62417 42.304C1.64284 49.3867 2.1335 53.44 4.26684 54.4853C6.89084 55.8507 17.0668 54.9333 21.9308 51.7547C22.4792 51.3895 22.8858 50.8474 23.0828 50.2187C23.2166 49.7312 23.2953 49.2303 23.3175 48.7253C23.3175 48.7253 23.3175 38.6987 23.3175 30.9973C23.3175 23.296 23.2748 16.064 23.2748 15.7653Z" fill="white"/>
<path d="M40.7466 15.7653C40.7703 15.1393 40.9539 14.5297 41.2799 13.9947C41.5165 13.5745 41.8653 13.2283 42.2872 12.9948C42.7091 12.7612 43.1875 12.6495 43.6692 12.672C44.5536 12.6904 45.4077 12.9975 46.1012 13.5467C46.6619 13.9758 47.183 14.4542 47.6586 14.976C49.614 16.9317 51.3719 19.0754 52.9066 21.376C54.7896 24.2204 56.4582 27.2011 57.8986 30.2933C59.6515 34.1022 60.8305 38.1496 61.3972 42.304C62.3786 49.3867 61.8239 53.44 59.7972 54.4853C57.1732 55.8507 46.8906 54.9333 42.1332 51.7547C41.5849 51.3895 41.1783 50.8474 40.9812 50.2187C40.8475 49.7312 40.7687 49.2303 40.7466 48.7253V15.7653V15.7653Z" fill="white"/>
<path d="M38.4001 22.272C37.1654 21.8621 36.0899 21.076 35.3247 20.0238C34.5595 18.9716 34.1429 17.7063 34.1334 16.4053V6.54933H29.8668V16.4053C29.8617 17.7099 29.4472 18.9801 28.6817 20.0365C27.9162 21.0929 26.8383 21.8823 25.6001 22.2933V25.8347H38.4001V22.272Z" fill="white"/>
</svg>
